<svg width="100" height="96" viewBox="0 0 100 96" fill="none" xmlns="http://www.w3.org/2000/svg">
<g clip-path="url(#clip0_47_425)">
<rect width="100" height="96" rx="28" fill="#00BFC9"/>
<path d="M31.7155 28.0003H50.3508C55.7555 28.0003 60.6687 30.194 64.2292 33.7268C67.7897 37.2602 70 42.1365 70 47.5C70 52.8643 67.79 57.7401 64.2292 61.2734C60.6687 64.8063 55.7555 67 50.3508 67H30V28L31.7155 28.0003ZM33.4311 41.4496C34.6838 40.8949 35.9556 40.3807 37.2524 39.9542C39.489 39.2194 41.8056 38.738 44.2343 38.738H50.1904C50.4486 38.738 50.7035 38.754 50.9541 38.7854C49.2181 36.3771 46.7374 33.9179 43.4623 31.4046H33.4308L33.4311 41.4496ZM50.693 56.2412C50.527 56.2548 50.3597 56.2618 50.1907 56.2618H42.5193V42.2391C41.0939 42.3958 39.6969 42.7352 38.3246 43.1864C36.6604 43.7336 35.0319 44.4405 33.4313 45.1887V63.5956H43.0667C46.2934 61.1495 48.8552 58.6978 50.693 56.2412ZM50.1907 42.1429H45.9498V52.8571H50.1907C51.1724 52.8571 52.0921 52.3152 52.7816 51.4417C53.5645 50.4507 54.0504 49.0564 54.0504 47.5C54.0504 45.9431 53.5643 44.5493 52.7816 43.558C52.0921 42.6848 51.1724 42.1429 50.1907 42.1429ZM48.7975 31.4049C54.9935 37.0017 57.7437 42.5494 57.4743 48.0523C57.2118 53.4219 54.0641 58.5941 48.4346 63.5954H50.3513C54.8098 63.5954 58.8648 61.7836 61.8046 58.8668C64.7449 55.9488 66.5695 51.9255 66.5695 47.5008C66.5695 43.0753 64.7446 39.0514 61.8046 36.1338C58.8648 33.2167 54.8098 31.4052 50.3513 31.4052L48.7975 31.4049Z" fill="white" fill-opacity="0.62"/>
</g>
<defs>
<clipPath id="clip0_47_425">
<rect width="100" height="96" fill="white"/>
</clipPath>
</defs>
</svg>
