<svg width="252" height="76" viewBox="0 0 252 76" fill="none" xmlns="http://www.w3.org/2000/svg">
<path d="M112.65 16.5416C118.508 16.5416 123.495 18.6308 127.611 22.8044C131.726 26.9796 133.785 32.0342 133.785 37.9692C133.785 43.9042 131.717 48.9718 127.58 53.1662C123.444 57.3621 118.466 59.4591 112.65 59.4591H94.1573V16.5411H112.65V16.5416ZM112.405 51.785C116.132 51.785 119.317 50.4324 121.958 47.7319C124.599 45.0303 125.92 41.7761 125.92 37.9692C125.92 34.1623 124.599 30.9081 121.958 28.2065C119.317 25.507 116.131 24.1544 112.405 24.1544H102.084V51.7845H112.405V51.785ZM157.175 22.0055C161.598 17.5852 166.923 15.375 173.149 15.375C179.374 15.375 184.709 17.5852 189.152 22.0055C193.597 26.4269 195.819 31.7475 195.819 37.9692C195.819 44.1909 193.597 49.5229 189.152 53.964C184.708 58.4052 179.374 60.6252 173.149 60.6252C166.923 60.6252 161.598 58.4046 157.175 53.964C152.751 49.5229 150.539 44.1909 150.539 37.9692C150.539 31.7475 152.751 26.4269 157.175 22.0055ZM162.765 48.3765C165.633 51.2625 169.093 52.7055 173.149 52.7055C177.203 52.7055 180.675 51.262 183.563 48.3765C186.45 45.4906 187.894 42.0223 187.894 37.9692C187.894 33.9171 186.45 30.4478 183.563 27.5619C180.675 24.6759 177.203 23.2335 173.149 23.2335C169.093 23.2335 165.633 24.6759 162.765 27.5619C159.898 30.4478 158.465 33.9171 158.465 37.9692C158.465 42.0223 159.898 45.4906 162.765 48.3765ZM251.647 16.5411V59.4591H245.871L220.498 29.9871V59.4591H212.572V16.5411H218.348L243.722 45.9508V16.5411H251.647H251.647Z" fill="white"/>
<path d="M3.3197 0.000519431H39.3806C49.8391 0.000519431 59.3466 4.27543 66.2365 11.16C73.1264 18.0455 77.4035 27.548 77.4035 38C77.4035 48.4535 73.1269 57.955 66.2365 64.8405C59.3466 71.7251 49.8391 76 39.3806 76H0V0L3.3197 0.000519431ZM6.6394 26.2094C9.06355 25.1285 11.5246 24.1265 14.034 23.2954C18.362 21.8634 22.845 20.9253 27.5446 20.9253H39.0703C39.5698 20.9253 40.063 20.9564 40.5479 21.0177C37.1887 16.3247 32.3882 11.5324 26.0508 6.63469H6.63888L6.6394 26.2094ZM40.0427 55.0342C39.7215 55.0607 39.3977 55.0742 39.0708 55.0742H24.226V27.748C21.4676 28.0534 18.7643 28.7147 16.1089 29.5941C12.8885 30.6604 9.73716 32.038 6.63992 33.496V69.3658H25.2852C31.5291 64.599 36.4865 59.8213 40.0427 55.0342ZM39.0708 27.5605H30.8643V48.4395H39.0708C40.9705 48.4395 42.7502 47.3835 44.0844 45.6813C45.5995 43.7501 46.5397 41.033 46.5397 38C46.5397 34.966 45.599 32.2499 44.0844 30.3181C42.7502 28.6165 40.9705 27.5605 39.0708 27.5605ZM36.3748 6.63521C48.3646 17.5417 53.6864 28.3526 53.1651 39.0763C52.6573 49.5402 46.5662 59.6192 35.6726 69.3653H39.3816C48.0091 69.3653 55.8559 65.8347 61.5446 60.1506C67.2344 54.4644 70.7652 46.6241 70.7652 38.0016C70.7652 29.3774 67.2339 21.5361 61.5446 15.8504C55.8559 10.1658 48.0091 6.63573 39.3816 6.63573L36.3748 6.63521Z" fill="#00BFC9"/>
<path d="M99.9599 69.5466L98.3159 69.6499C98.2926 68.7014 97.9266 68.2272 97.2146 68.2272C96.3975 68.2272 95.99 68.9534 95.99 70.4083C95.99 71.2482 96.1002 71.8175 96.3227 72.1167C96.5446 72.4154 96.8539 72.5655 97.2515 72.5655C97.8986 72.5655 98.2926 72.1447 98.4365 71.3033L99.9605 71.3968C99.8617 72.1931 99.5644 72.8013 99.068 73.2153C98.5701 73.6308 97.9599 73.8381 97.24 73.8381C96.3559 73.8381 95.6376 73.5327 95.0846 72.9229C94.5316 72.313 94.2561 71.47 94.2561 70.3927C94.2561 69.3855 94.5233 68.5607 95.0581 67.9181C95.5924 67.2751 96.3242 66.9546 97.2504 66.9546C98.8544 66.9546 99.7583 67.8179 99.9605 69.5466H99.9599Z" fill="white"/>
<path d="M105.731 73.8381C104.832 73.8381 104.135 73.501 103.642 72.8262C103.149 72.1499 102.903 71.3334 102.903 70.3745C102.903 69.3995 103.152 68.5861 103.652 67.9332C104.151 67.2803 104.862 66.9546 105.785 66.9546C106.718 66.9546 107.421 67.3021 107.896 67.9986C108.371 68.6952 108.608 69.493 108.608 70.3896C108.608 71.3583 108.364 72.1749 107.874 72.8392C107.385 73.5057 106.671 73.8381 105.73 73.8381H105.731ZM105.776 68.2272C104.957 68.2272 104.548 68.9487 104.548 70.3932C104.548 71.8409 104.957 72.5655 105.776 72.5655C106.568 72.5655 106.964 71.8424 106.964 70.3979C106.964 68.9497 106.568 68.2272 105.776 68.2272Z" fill="white"/>
<path d="M117.123 67.0552V73.7382H115.766L113.183 69.2243C113.186 69.3381 113.19 69.4134 113.193 69.4498C113.207 69.5635 113.213 69.6601 113.213 69.7386V73.7382H111.99V67.0552H113.684L115.94 70.9961C115.92 70.8008 115.91 70.6523 115.91 70.5499V67.0547H117.123V67.0552Z" fill="white"/>
<path d="M125.06 67.0552V68.3776H123.406V73.7382H121.822V68.3776H120.157V67.0552H125.06Z" fill="white"/>
<path d="M130.916 67.0552L132.997 73.7382H131.314L130.901 72.3554H128.746L128.323 73.7382H126.951L129.091 67.0552H130.916ZM129.12 71.1228H130.534L129.834 68.7818L129.12 71.1228Z" fill="white"/>
<path d="M136.074 67.0552H139.184C139.74 67.0552 140.16 67.1237 140.441 67.2609C140.72 67.3996 140.952 67.5949 141.134 67.8504C141.316 68.1044 141.408 68.415 141.408 68.7807C141.408 69.5235 141.007 70.018 140.205 70.2668C140.67 70.3702 141.019 70.5774 141.251 70.888C141.483 71.1971 141.598 71.5347 141.598 71.8999C141.598 72.3991 141.409 72.8302 141.03 73.1938C140.653 73.5564 140.038 73.7382 139.186 73.7382H136.074V67.0552ZM137.638 68.2374V69.7001H138.818C139.251 69.7001 139.523 69.6149 139.635 69.443C139.747 69.2726 139.804 69.109 139.804 68.9521C139.804 68.7818 139.757 68.6363 139.665 68.5148C139.572 68.3911 139.472 68.3143 139.36 68.2841C139.25 68.2525 139.032 68.2374 138.707 68.2374H137.639H137.638ZM137.638 70.9026V72.4957H138.835C139.244 72.4957 139.533 72.424 139.702 72.2822C139.871 72.1404 139.955 71.9415 139.955 71.688C139.955 71.4745 139.873 71.2906 139.711 71.1353C139.549 70.98 139.28 70.9031 138.904 70.9031H137.639L137.638 70.9026Z" fill="white"/>
<path d="M146.526 67.0552V73.7382H144.962V67.0552H146.526Z" fill="white"/>
<path d="M151.806 72.4157H154.463V73.7382H150.222V67.0552H151.806V72.4157Z" fill="white"/>
<path d="M159.192 67.0552V73.7382H157.628V67.0552H159.192Z" fill="white"/>
<path d="M162.888 67.0552H164.926C165.757 67.0552 166.375 67.1705 166.783 67.4011C167.19 67.6312 167.555 67.9938 167.877 68.493C168.2 68.9906 168.362 69.6186 168.362 70.38C168.362 71.3353 168.079 72.1352 167.516 72.7762C166.953 73.4172 166.176 73.7382 165.185 73.7382H162.888V67.0552ZM164.422 68.2878V72.4858H165.065C165.635 72.4858 166.058 72.2723 166.333 71.8464C166.609 71.4205 166.747 70.9197 166.747 70.3452C166.747 69.9411 166.669 69.5656 166.51 69.2217C166.353 68.8779 166.158 68.6358 165.924 68.4971C165.69 68.3584 165.407 68.2883 165.08 68.2883H164.421L164.422 68.2878Z" fill="white"/>
<path d="M174.809 67.0552L176.89 73.7382H175.207L174.794 72.3554H172.639L172.216 73.7382H170.844L172.984 67.0552H174.809ZM173.013 71.1228H174.427L173.727 68.7818L173.013 71.1228Z" fill="white"/>
<path d="M179.968 67.0552H182.006C182.837 67.0552 183.455 67.1705 183.863 67.4011C184.27 67.6312 184.635 67.9938 184.957 68.493C185.28 68.9906 185.442 69.6186 185.442 70.38C185.442 71.3353 185.159 72.1352 184.596 72.7762C184.033 73.4172 183.256 73.7382 182.265 73.7382H179.968V67.0552ZM181.501 68.2878V72.4858H182.145C182.715 72.4858 183.138 72.2723 183.413 71.8464C183.689 71.4205 183.827 70.9197 183.827 70.3452C183.827 69.9411 183.749 69.5656 183.59 69.2217C183.433 68.8779 183.237 68.6358 183.003 68.4971C182.77 68.3584 182.487 68.2883 182.159 68.2883H181.501L181.501 68.2878Z" fill="white"/>
<path d="M193.599 68.3278H190.421V69.7006H192.917V70.953H190.421V72.4157H193.599V73.7382H188.827V67.0552H193.599V68.3278Z" fill="white"/>
<path d="M204.089 67.0552H206.127C206.958 67.0552 207.576 67.1705 207.984 67.4011C208.391 67.6312 208.755 67.9938 209.078 68.493C209.4 68.9906 209.563 69.6186 209.563 70.38C209.563 71.3353 209.28 72.1352 208.717 72.7762C208.154 73.4172 207.377 73.7382 206.386 73.7382H204.089V67.0552ZM205.622 68.2878V72.4858H206.266C206.835 72.4858 207.259 72.2723 207.534 71.8464C207.809 71.4205 207.948 70.9197 207.948 70.3452C207.948 69.9411 207.87 69.5656 207.711 69.2217C207.554 68.8779 207.358 68.6358 207.124 68.4971C206.891 68.3584 206.608 68.2883 206.28 68.2883H205.622L205.622 68.2878Z" fill="white"/>
<path d="M214.512 67.0552V73.7382H212.948V67.0552H214.512Z" fill="white"/>
<path d="M223.411 70.161V73.7378H222.699C222.647 73.4875 222.572 73.2304 222.474 72.9696C221.998 73.5493 221.39 73.8381 220.651 73.8381C219.779 73.8381 219.101 73.5259 218.616 72.9031C218.13 72.2803 217.888 71.4752 217.888 70.4867C217.888 69.4229 218.146 68.5695 218.665 67.9233C219.181 67.2766 219.884 66.9546 220.772 66.9546C221.517 66.9546 222.117 67.1634 222.575 67.5795C223.031 67.9971 223.31 68.5513 223.412 69.2442L221.928 69.4395C221.808 68.6313 221.422 68.2272 220.773 68.2272C220.347 68.2272 220.026 68.4189 219.809 68.8032C219.59 69.1871 219.482 69.7351 219.482 70.4483C219.482 71.1345 219.6 71.6586 219.836 72.0211C220.072 72.3837 220.407 72.5655 220.842 72.5655C221.124 72.5655 221.375 72.4735 221.597 72.2917C221.817 72.1079 221.928 71.8159 221.928 71.4134H220.665V70.161H223.412H223.411Z" fill="white"/>
<path d="M228.567 67.0552V73.7382H227.004V67.0552H228.567Z" fill="white"/>
<path d="M236.494 67.0552V68.3776H234.84V73.7382H233.256V68.3776H231.592V67.0552H236.494Z" fill="white"/>
<path d="M242.35 67.0552L244.431 73.7382H242.748L242.335 72.3554H240.18L239.757 73.7382H238.385L240.526 67.0552H242.35ZM240.554 71.1228H241.968L241.268 68.7818L240.554 71.1228Z" fill="white"/>
<path d="M249.093 72.4157H251.75V73.7382H247.509V67.0552H249.093V72.4157Z" fill="white"/>
</svg>
