<svg width="227" height="227" viewBox="0 0 227 227" fill="none" xmlns="http://www.w3.org/2000/svg">
<circle cx="3.66129" cy="3.66129" r="3.66129" fill="#FFD500"/>
<circle cx="3.66129" cy="25.6291" r="3.66129" fill="#FFD500"/>
<circle cx="3.66129" cy="47.5969" r="3.66129" fill="#FFD500"/>
<circle cx="3.66129" cy="69.5647" r="3.66129" fill="#FFD500"/>
<circle cx="3.66129" cy="91.5325" r="3.66129" fill="#FFD500"/>
<circle cx="3.66129" cy="113.5" r="3.66129" fill="#FFD500"/>
<circle cx="3.66129" cy="135.467" r="3.66129" fill="#FFD500"/>
<circle cx="3.66129" cy="157.435" r="3.66129" fill="#FFD500"/>
<circle cx="3.66129" cy="179.403" r="3.66129" fill="#FFD500"/>
<circle cx="3.66129" cy="201.371" r="3.66129" fill="#FFD500"/>
<circle cx="3.66129" cy="223.339" r="3.66129" fill="#FFD500"/>
<circle cx="25.6291" cy="3.66129" r="3.66129" fill="#FFD500"/>
<circle cx="25.6291" cy="25.6291" r="3.66129" fill="#FFD500"/>
<circle cx="25.6291" cy="47.5969" r="3.66129" fill="#FFD500"/>
<circle cx="25.6291" cy="69.5647" r="3.66129" fill="#FFD500"/>
<circle cx="25.6291" cy="91.5325" r="3.66129" fill="#FFD500"/>
<circle cx="25.6291" cy="113.5" r="3.66129" fill="#FFD500"/>
<circle cx="25.6291" cy="135.467" r="3.66129" fill="#FFD500"/>
<circle cx="25.6291" cy="157.435" r="3.66129" fill="#FFD500"/>
<circle cx="25.6291" cy="179.403" r="3.66129" fill="#00BFC9"/>
<circle cx="25.6291" cy="201.371" r="3.66129" fill="#FFD500"/>
<circle cx="25.6291" cy="223.339" r="3.66129" fill="#FFD500"/>
<circle cx="47.5968" cy="3.66129" r="3.66129" fill="#FFD500"/>
<circle cx="47.5968" cy="25.6291" r="3.66129" fill="#FFD500"/>
<circle cx="47.5968" cy="47.5969" r="3.66129" fill="#FFD500"/>
<circle cx="47.5968" cy="69.5647" r="3.66129" fill="#FFD500"/>
<circle cx="47.5968" cy="91.5325" r="3.66129" fill="#FFD500"/>
<circle cx="47.5968" cy="113.5" r="3.66129" fill="#FFD500"/>
<circle cx="47.5968" cy="135.467" r="3.66129" fill="#FFD500"/>
<circle cx="47.5968" cy="157.435" r="3.66129" fill="#FFD500"/>
<circle cx="47.5968" cy="179.403" r="3.66129" fill="#FFD500"/>
<circle cx="47.5968" cy="201.371" r="3.66129" fill="#FFD500"/>
<circle cx="47.5968" cy="223.339" r="3.66129" fill="#FFD500"/>
<circle cx="69.5646" cy="3.66129" r="3.66129" fill="#FFD500"/>
<circle cx="69.5646" cy="25.6291" r="3.66129" fill="#FFD500"/>
<circle cx="69.5646" cy="47.5969" r="3.66129" fill="#FFD500"/>
<circle cx="69.5646" cy="69.5647" r="3.66129" fill="#FFD500"/>
<circle cx="69.5646" cy="91.5325" r="3.66129" fill="#FFD500"/>
<circle cx="69.5646" cy="113.5" r="3.66129" fill="#FFD500"/>
<circle cx="69.5646" cy="135.467" r="3.66129" fill="#FFD500"/>
<circle cx="69.5646" cy="157.435" r="3.66129" fill="#FFD500"/>
<circle cx="69.5646" cy="179.403" r="3.66129" fill="#FFD500"/>
<circle cx="69.5646" cy="201.371" r="3.66129" fill="#FFD500"/>
<circle cx="69.5646" cy="223.339" r="3.66129" fill="#FFD500"/>
<circle cx="91.5324" cy="3.66129" r="3.66129" fill="#FFD500"/>
<circle cx="91.5324" cy="25.6291" r="3.66129" fill="#FFD500"/>
<circle cx="91.5324" cy="47.5969" r="3.66129" fill="#FFD500"/>
<circle cx="91.5324" cy="69.5647" r="3.66129" fill="#FFD500"/>
<circle cx="91.5324" cy="91.5325" r="3.66129" fill="#FFD500"/>
<circle cx="91.5324" cy="113.5" r="3.66129" fill="#FFD500"/>
<circle cx="91.5324" cy="135.467" r="3.66129" fill="#FFD500"/>
<circle cx="91.5324" cy="157.435" r="3.66129" fill="#FFD500"/>
<circle cx="91.5324" cy="179.403" r="3.66129" fill="#FFD500"/>
<circle cx="91.5324" cy="201.371" r="3.66129" fill="#FFD500"/>
<circle cx="91.5324" cy="223.339" r="3.66129" fill="#FFD500"/>
<circle cx="113.5" cy="3.66129" r="3.66129" fill="#FFD500"/>
<circle cx="113.5" cy="25.6291" r="3.66129" fill="#FFD500"/>
<circle cx="113.5" cy="47.5969" r="3.66129" fill="#FFD500"/>
<circle cx="113.5" cy="69.5647" r="3.66129" fill="#FFD500"/>
<circle cx="113.5" cy="91.5325" r="3.66129" fill="#FFD500"/>
<circle cx="113.5" cy="113.5" r="3.66129" fill="#FFD500"/>
<circle cx="113.5" cy="135.467" r="3.66129" fill="#FFD500"/>
<circle cx="113.5" cy="157.435" r="3.66129" fill="#FFD500"/>
<circle cx="113.5" cy="179.403" r="3.66129" fill="#FFD500"/>
<circle cx="113.5" cy="201.371" r="3.66129" fill="#FFD500"/>
<circle cx="113.5" cy="223.339" r="3.66129" fill="#FFD500"/>
<circle cx="135.468" cy="3.66129" r="3.66129" fill="#FFD500"/>
<circle cx="135.468" cy="25.6291" r="3.66129" fill="#FFD500"/>
<circle cx="135.468" cy="47.5969" r="3.66129" fill="#FFD500"/>
<circle cx="135.468" cy="69.5647" r="3.66129" fill="#FFD500"/>
<circle cx="135.468" cy="91.5325" r="3.66129" fill="#FFD500"/>
<circle cx="135.468" cy="113.5" r="3.66129" fill="#FFD500"/>
<circle cx="135.468" cy="135.467" r="3.66129" fill="#FFD500"/>
<circle cx="135.468" cy="157.435" r="3.66129" fill="#FFD500"/>
<circle cx="135.468" cy="179.403" r="3.66129" fill="#FFD500"/>
<circle cx="135.468" cy="201.371" r="3.66129" fill="#FFD500"/>
<circle cx="135.468" cy="223.339" r="3.66129" fill="#FFD500"/>
<circle cx="157.435" cy="3.66129" r="3.66129" fill="#FFD500"/>
<circle cx="157.435" cy="25.6291" r="3.66129" fill="#FFD500"/>
<circle cx="157.435" cy="47.5969" r="3.66129" fill="#FFD500"/>
<circle cx="157.435" cy="69.5647" r="3.66129" fill="#FFD500"/>
<circle cx="157.435" cy="91.5325" r="3.66129" fill="#FFD500"/>
<circle cx="157.435" cy="113.5" r="3.66129" fill="#FFD500"/>
<circle cx="157.435" cy="135.467" r="3.66129" fill="#FFD500"/>
<circle cx="157.435" cy="157.435" r="3.66129" fill="#FFD500"/>
<circle cx="157.435" cy="179.403" r="3.66129" fill="#FFD500"/>
<circle cx="157.435" cy="201.371" r="3.66129" fill="#FFD500"/>
<circle cx="157.435" cy="223.339" r="3.66129" fill="#FFD500"/>
<circle cx="179.403" cy="3.66129" r="3.66129" fill="#FFD500"/>
<circle cx="179.403" cy="25.6291" r="3.66129" fill="#FFD500"/>
<circle cx="179.403" cy="47.5969" r="3.66129" fill="#FFD500"/>
<circle cx="179.403" cy="69.5647" r="3.66129" fill="#FFD500"/>
<circle cx="179.403" cy="91.5325" r="3.66129" fill="#FFD500"/>
<circle cx="179.403" cy="113.5" r="3.66129" fill="#FFD500"/>
<circle cx="179.403" cy="135.467" r="3.66129" fill="#FFD500"/>
<circle cx="179.403" cy="157.435" r="3.66129" fill="#FFD500"/>
<circle cx="179.403" cy="179.403" r="3.66129" fill="#FFD500"/>
<circle cx="179.403" cy="201.371" r="3.66129" fill="#FFD500"/>
<circle cx="179.403" cy="223.339" r="3.66129" fill="#FFD500"/>
<circle cx="201.371" cy="3.66129" r="3.66129" fill="#FFD500"/>
<circle cx="201.371" cy="25.6291" r="3.66129" fill="#FFD500"/>
<circle cx="201.371" cy="47.5969" r="3.66129" fill="#FFD500"/>
<circle cx="201.371" cy="69.5647" r="3.66129" fill="#FFD500"/>
<circle cx="201.371" cy="91.5325" r="3.66129" fill="#FFD500"/>
<circle cx="201.371" cy="113.5" r="3.66129" fill="#FFD500"/>
<circle cx="201.371" cy="135.467" r="3.66129" fill="#FFD500"/>
<circle cx="201.371" cy="157.435" r="3.66129" fill="#FFD500"/>
<circle cx="201.371" cy="179.403" r="3.66129" fill="#FFD500"/>
<circle cx="201.371" cy="201.371" r="3.66129" fill="#FFD500"/>
<circle cx="201.371" cy="223.339" r="3.66129" fill="#FFD500"/>
<circle cx="223.339" cy="3.66129" r="3.66129" fill="#FFD500"/>
<circle cx="223.339" cy="25.6291" r="3.66129" fill="#FFD500"/>
<circle cx="223.339" cy="47.5969" r="3.66129" fill="#FFD500"/>
<circle cx="223.339" cy="69.5647" r="3.66129" fill="#FFD500"/>
<circle cx="223.339" cy="91.5325" r="3.66129" fill="#FFD500"/>
<circle cx="223.339" cy="113.5" r="3.66129" fill="#FFD500"/>
<circle cx="223.339" cy="135.467" r="3.66129" fill="#FFD500"/>
<circle cx="223.339" cy="157.435" r="3.66129" fill="#FFD500"/>
<circle cx="223.339" cy="179.403" r="3.66129" fill="#FFD500"/>
<circle cx="223.339" cy="201.371" r="3.66129" fill="#FFD500"/>
<circle cx="223.339" cy="223.339" r="3.66129" fill="#FFD500"/>
</svg>
