<svg width="1366" height="252" viewBox="0 0 1366 252" fill="none" xmlns="http://www.w3.org/2000/svg">
<path fill-rule="evenodd" clip-rule="evenodd" d="M110.023 217.439C93.8854 222.722 77.3484 228.136 56.4512 230.244C21.8016 233.738 -6.65434 231.412 -28.0918 229.659C-36.5776 228.965 -43.9637 228.361 -50.1989 228.244C-50.6517 228.236 -51.0102 227.93 -50.9998 227.561C-50.9893 227.192 -50.6138 226.9 -50.161 226.908C-43.7587 227.029 -36.2644 227.642 -27.6992 228.343C-6.29603 230.094 21.795 232.392 56.2497 228.917C76.9198 226.833 93.2491 221.489 109.388 216.206C112.007 215.349 114.621 214.494 117.247 213.654C136.054 207.643 155.438 202.474 181.721 203.525C207.669 204.562 225.949 213.053 243.958 221.418L244.751 221.786C263.028 230.273 281.144 238.52 307.026 238.934C332.882 239.348 350.981 231.35 369.252 223.276L369.284 223.262C387.558 215.187 406.008 207.041 432.359 207.533C458.573 208.022 476.965 216.906 495.142 225.686L495.423 225.822C513.706 234.653 531.812 243.335 557.681 243.611C583.544 243.887 601.645 235.489 619.929 226.996L619.978 226.973C638.233 218.493 656.677 209.924 683.011 210.205C709.063 210.483 727.394 219.53 745.449 228.442L746.09 228.759C764.372 237.78 782.467 246.559 808.319 246.284C833.993 246.01 852.017 236.49 870.188 226.893L870.549 226.702C888.816 217.055 907.282 207.392 933.665 207.533C960.05 207.673 978.516 217.674 996.779 227.584L996.855 227.625C1015.12 237.537 1033.2 247.345 1059 247.62C1084.84 247.895 1102.92 238.517 1121.21 229.017L1121.27 228.986C1139.52 219.51 1157.97 209.924 1184.33 210.205C1210.69 210.486 1230.12 219.734 1248.89 229.253C1249.86 229.746 1250.83 230.238 1251.79 230.73C1269.58 239.779 1287.03 248.661 1309.72 250.295C1333.7 252.022 1354.65 247.43 1372.41 241.778C1380.06 239.343 1387.1 236.715 1393.55 234.311C1394.59 233.923 1395.62 233.541 1396.62 233.167C1403.87 230.478 1410.34 228.166 1415.97 226.931C1416.4 226.835 1416.85 227.046 1416.97 227.402C1417.09 227.759 1416.83 228.125 1416.39 228.221C1410.92 229.423 1404.57 231.686 1397.3 234.383C1396.3 234.755 1395.28 235.136 1394.24 235.524C1387.79 237.928 1380.7 240.572 1373 243.022C1355.12 248.714 1333.9 253.378 1309.58 251.626C1286.49 249.963 1268.72 240.92 1251 231.901C1250 231.396 1249.01 230.891 1248.02 230.388C1229.26 220.873 1210.17 211.817 1184.31 211.541C1158.47 211.266 1140.39 220.644 1122.1 230.144L1122.04 230.175C1103.79 239.651 1085.33 249.237 1058.98 248.956C1032.69 248.676 1014.26 238.677 996.067 228.802L995.87 228.696C977.579 218.771 959.491 209.007 933.654 208.869C907.817 208.731 889.728 218.165 871.441 227.824L870.969 228.073C852.861 237.637 834.49 247.341 808.341 247.62C781.972 247.901 763.513 238.919 745.24 229.901L744.697 229.633C726.59 220.697 708.593 211.814 682.989 211.541C657.126 211.265 639.025 219.663 620.741 228.157L620.692 228.179C602.437 236.66 583.993 245.228 557.659 244.947C531.307 244.666 512.859 235.797 494.587 226.971L494.401 226.882C476.178 218.079 458.105 209.35 432.321 208.869C406.451 208.386 388.347 216.359 370.066 224.437L369.941 224.492C351.709 232.549 333.283 240.691 306.994 240.27C280.656 239.849 262.217 231.435 243.939 222.947L243.226 222.616C225.18 214.234 207.195 205.881 181.64 204.859C155.702 203.822 136.573 208.912 117.846 214.898C115.238 215.732 112.636 216.584 110.023 217.439Z" fill="#DEE2E6"/>
<path fill-rule="evenodd" clip-rule="evenodd" d="M110.023 206.749C93.8854 212.032 77.3484 217.446 56.4512 219.554C21.8016 223.048 -6.65434 220.722 -28.0918 218.969C-36.5776 218.275 -43.9637 217.672 -50.1989 217.554C-50.6517 217.546 -51.0102 217.24 -50.9998 216.871C-50.9893 216.502 -50.6138 216.21 -50.161 216.218C-43.7587 216.339 -36.2644 216.952 -27.6992 217.653C-6.29603 219.404 21.795 221.702 56.2497 218.228C76.9198 216.143 93.2491 210.799 109.388 205.517C112.007 204.659 114.621 203.804 117.247 202.965C136.054 196.953 155.438 191.784 181.721 192.835C207.669 193.872 225.949 202.363 243.958 210.728L244.751 211.097C263.028 219.584 281.144 227.831 307.026 228.244C332.882 228.658 350.981 220.66 369.252 212.587L369.284 212.572C387.558 204.497 406.008 196.351 432.359 196.843C458.573 197.332 476.965 206.216 495.142 214.996L495.423 215.132C513.706 223.963 531.812 232.645 557.681 232.921C583.544 233.197 601.645 224.799 619.929 216.306L619.978 216.283C638.233 207.803 656.677 199.234 683.011 199.515C709.063 199.793 727.394 208.84 745.449 217.752L746.09 218.069C764.372 227.091 782.467 235.869 808.319 235.594C833.993 235.32 852.017 225.8 870.188 216.203L870.549 216.012C888.816 206.365 907.282 196.702 933.665 196.843C960.05 196.983 978.516 206.984 996.779 216.894L996.855 216.935C1015.12 226.847 1033.2 236.655 1059 236.93C1084.84 237.205 1102.92 227.827 1121.21 218.327L1121.27 218.296C1139.52 208.82 1157.97 199.234 1184.33 199.515C1210.69 199.796 1230.12 209.044 1248.89 218.564C1249.86 219.056 1250.83 219.548 1251.79 220.04C1269.58 229.089 1287.03 237.971 1309.72 239.605C1333.7 241.332 1354.65 236.74 1372.41 231.088C1380.06 228.653 1387.1 226.025 1393.55 223.621C1394.59 223.233 1395.62 222.851 1396.62 222.477C1403.87 219.788 1410.34 217.476 1415.97 216.241C1416.4 216.145 1416.85 216.356 1416.97 216.712C1417.09 217.069 1416.83 217.435 1416.39 217.531C1410.92 218.733 1404.57 220.997 1397.3 223.693C1396.3 224.066 1395.28 224.447 1394.24 224.834C1387.79 227.238 1380.7 229.883 1373 232.332C1355.12 238.024 1333.9 242.688 1309.58 240.936C1286.49 239.273 1268.72 230.23 1251 221.211C1250 220.706 1249.01 220.201 1248.02 219.698C1229.26 210.183 1210.17 201.127 1184.31 200.851C1158.47 200.576 1140.39 209.954 1122.1 219.454L1122.04 219.485C1103.79 228.961 1085.33 238.547 1058.98 238.266C1032.69 237.986 1014.26 227.987 996.067 218.113L995.87 218.006C977.579 208.081 959.491 198.317 933.654 198.179C907.817 198.041 889.728 207.475 871.441 217.134L870.969 217.383C852.861 226.947 834.49 236.651 808.341 236.93C781.972 237.211 763.513 228.229 745.24 219.212L744.697 218.944C726.59 210.007 708.593 201.124 682.989 200.851C657.126 200.576 639.025 208.973 620.741 217.467L620.692 217.49C602.437 225.97 583.993 234.538 557.659 234.257C531.307 233.976 512.859 225.107 494.587 216.281L494.401 216.192C476.178 207.39 458.105 198.66 432.321 198.179C406.451 197.696 388.347 205.669 370.066 213.747L369.941 213.802C351.709 221.859 333.283 230.001 306.994 229.58C280.656 229.159 262.217 220.745 243.939 212.257L243.226 211.926C225.18 203.544 207.195 195.191 181.64 194.169C155.702 193.132 136.573 198.222 117.846 204.208C115.238 205.042 112.636 205.894 110.023 206.749Z" fill="#DEE2E6"/>
<path fill-rule="evenodd" clip-rule="evenodd" d="M110.023 196.06C93.8854 201.342 77.3484 206.756 56.4512 208.864C21.8016 212.358 -6.65434 210.032 -28.0918 208.279C-36.5776 207.585 -43.9637 206.982 -50.1989 206.864C-50.6517 206.856 -51.0102 206.55 -50.9998 206.181C-50.9893 205.812 -50.6138 205.52 -50.161 205.528C-43.7587 205.649 -36.2644 206.262 -27.6992 206.963C-6.29603 208.714 21.795 211.013 56.2497 207.538C76.9198 205.453 93.2491 200.109 109.388 194.827C112.007 193.97 114.621 193.114 117.247 192.275C136.054 186.263 155.438 181.094 181.721 182.145C207.669 183.182 225.949 191.673 243.958 200.038L244.751 200.407C263.028 208.894 281.144 217.141 307.026 217.555C332.882 217.968 350.981 209.97 369.252 201.897L369.284 201.882C387.558 193.807 406.008 185.661 432.359 186.153C458.573 186.642 476.965 195.526 495.142 204.306L495.423 204.442C513.706 213.273 531.812 221.955 557.681 222.231C583.544 222.507 601.645 214.11 619.929 205.616L619.978 205.593C638.233 197.113 656.677 188.544 683.011 188.825C709.063 189.103 727.394 198.15 745.449 207.063L746.09 207.379C764.372 216.401 782.467 225.179 808.319 224.904C833.993 224.63 852.017 215.11 870.188 205.513L870.549 205.323C888.816 195.675 907.282 186.012 933.665 186.153C960.05 186.293 978.516 196.294 996.779 206.204L996.855 206.245C1015.12 216.157 1033.2 225.965 1059 226.24C1084.84 226.516 1102.92 217.137 1121.21 207.637L1121.27 207.607C1139.52 198.13 1157.97 188.544 1184.33 188.825C1210.69 189.106 1230.12 198.354 1248.89 207.874C1249.86 208.366 1250.83 208.858 1251.79 209.351C1269.58 218.399 1287.03 227.281 1309.72 228.915C1333.7 230.642 1354.65 226.05 1372.41 220.398C1380.06 217.963 1387.1 215.336 1393.55 212.931C1394.59 212.543 1395.62 212.161 1396.62 211.787C1403.87 209.098 1410.34 206.786 1415.97 205.551C1416.4 205.455 1416.85 205.666 1416.97 206.023C1417.09 206.379 1416.83 206.745 1416.39 206.841C1410.92 208.043 1404.57 210.307 1397.3 213.003C1396.3 213.376 1395.28 213.757 1394.24 214.144C1387.79 216.548 1380.7 219.193 1373 221.643C1355.12 227.335 1333.9 231.999 1309.58 230.246C1286.49 228.583 1268.72 219.541 1251 210.521C1250 210.016 1249.01 209.511 1248.02 209.008C1229.26 199.493 1210.17 190.437 1184.31 190.161C1158.47 189.886 1140.39 199.264 1122.1 208.764L1122.04 208.795C1103.79 218.271 1085.33 227.857 1058.98 227.576C1032.69 227.296 1014.26 217.297 996.067 207.423L995.87 207.316C977.579 197.391 959.491 187.627 933.654 187.489C907.817 187.351 889.728 196.786 871.441 206.444L870.969 206.693C852.861 216.258 834.49 225.961 808.341 226.24C781.972 226.521 763.513 217.539 745.24 208.522L744.697 208.254C726.59 199.317 708.593 190.434 682.989 190.161C657.126 189.886 639.025 198.283 620.741 206.777L620.692 206.8C602.437 215.28 583.993 223.848 557.659 223.567C531.307 223.286 512.859 214.417 494.587 205.591L494.401 205.502C476.178 196.7 458.105 187.97 432.321 187.489C406.451 187.006 388.347 194.979 370.066 203.057L369.941 203.112C351.709 211.169 333.283 219.311 306.994 218.891C280.656 218.469 262.217 210.055 243.939 201.568L243.226 201.236C225.18 192.854 207.195 184.501 181.64 183.479C155.702 182.442 136.573 187.532 117.846 193.519C115.238 194.352 112.636 195.204 110.023 196.06Z" fill="#DEE2E6"/>
<path fill-rule="evenodd" clip-rule="evenodd" d="M110.023 185.37C93.8854 190.653 77.3484 196.066 56.4512 198.174C21.8016 201.668 -6.65434 199.342 -28.0918 197.589C-36.5776 196.896 -43.9637 196.292 -50.1989 196.174C-50.6517 196.166 -51.0102 195.86 -50.9998 195.491C-50.9893 195.122 -50.6138 194.83 -50.161 194.838C-43.7587 194.959 -36.2644 195.572 -27.6992 196.273C-6.29603 198.024 21.795 200.323 56.2497 196.848C76.9198 194.763 93.2491 189.419 109.388 184.137C112.007 183.28 114.621 182.424 117.247 181.585C136.054 175.573 155.438 170.404 181.721 171.455C207.669 172.492 225.949 180.983 243.958 189.348L244.751 189.717C263.028 198.204 281.144 206.451 307.026 206.865C332.882 207.278 350.981 199.28 369.252 191.207L369.284 191.192C387.558 183.117 406.008 174.971 432.359 175.463C458.573 175.952 476.965 184.836 495.142 193.616L495.423 193.752C513.706 202.583 531.812 211.266 557.681 211.541C583.544 211.817 601.645 203.42 619.929 194.926L619.978 194.903C638.233 186.423 656.677 177.855 683.011 178.135C709.063 178.413 727.394 187.461 745.449 196.373L746.09 196.689C764.372 205.711 782.467 214.489 808.319 214.214C833.993 213.94 852.017 204.42 870.188 194.823L870.549 194.633C888.816 184.985 907.282 175.322 933.665 175.463C960.05 175.603 978.516 185.604 996.779 195.514L996.855 195.555C1015.12 205.467 1033.2 215.275 1059 215.55C1084.84 215.826 1102.92 206.447 1121.21 196.947L1121.27 196.917C1139.52 187.44 1157.97 177.854 1184.33 178.135C1210.69 178.416 1230.12 187.664 1248.89 197.184C1249.86 197.676 1250.83 198.168 1251.79 198.661C1269.58 207.709 1287.03 216.591 1309.72 218.225C1333.7 219.952 1354.65 215.36 1372.41 209.708C1380.06 207.273 1387.1 204.646 1393.55 202.241C1394.59 201.853 1395.62 201.471 1396.62 201.097C1403.87 198.408 1410.34 196.096 1415.97 194.861C1416.4 194.765 1416.85 194.976 1416.97 195.333C1417.09 195.689 1416.83 196.056 1416.39 196.152C1410.92 197.353 1404.57 199.617 1397.3 202.313C1396.3 202.686 1395.28 203.067 1394.24 203.454C1387.79 205.858 1380.7 208.503 1373 210.953C1355.12 216.645 1333.9 221.309 1309.58 219.556C1286.49 217.893 1268.72 208.851 1251 199.831C1250 199.326 1249.01 198.822 1248.02 198.318C1229.26 188.803 1210.17 179.747 1184.31 179.471C1158.47 179.196 1140.39 188.575 1122.1 198.074L1122.04 198.105C1103.79 207.581 1085.33 217.167 1058.98 216.886C1032.69 216.606 1014.26 206.607 996.067 196.733L995.87 196.626C977.579 186.701 959.491 176.937 933.654 176.799C907.817 176.661 889.728 186.096 871.441 195.754L870.969 196.003C852.861 205.568 834.49 215.271 808.341 215.55C781.972 215.831 763.513 206.849 745.24 197.832L744.697 197.564C726.59 188.627 708.593 179.744 682.989 179.471C657.126 179.196 639.025 187.593 620.741 196.087L620.692 196.11C602.437 204.59 583.993 213.158 557.659 212.877C531.307 212.596 512.859 203.727 494.587 194.901L494.401 194.812C476.178 186.01 458.105 177.28 432.321 176.799C406.451 176.316 388.347 184.289 370.066 192.367L369.941 192.422C351.709 200.479 333.283 208.621 306.994 208.201C280.656 207.779 262.217 199.365 243.939 190.878L243.226 190.546C225.18 182.164 207.195 173.811 181.64 172.789C155.702 171.752 136.573 176.842 117.846 182.829C115.238 183.662 112.636 184.514 110.023 185.37Z" fill="#DEE2E6"/>
<path fill-rule="evenodd" clip-rule="evenodd" d="M110.023 174.68C93.8854 179.963 77.3484 185.376 56.4512 187.484C21.8016 190.978 -6.65434 188.652 -28.0918 186.899C-36.5776 186.206 -43.9637 185.602 -50.1989 185.484C-50.6517 185.476 -51.0102 185.17 -50.9998 184.801C-50.9893 184.432 -50.6138 184.14 -50.161 184.149C-43.7587 184.269 -36.2644 184.882 -27.6992 185.583C-6.29603 187.334 21.795 189.633 56.2497 186.158C76.9198 184.073 93.2491 178.729 109.388 173.447C112.007 172.59 114.621 171.734 117.247 170.895C136.054 164.883 155.438 159.714 181.721 160.765C207.669 161.802 225.949 170.293 243.958 178.658L244.751 179.027C263.028 187.514 281.144 195.761 307.026 196.175C332.882 196.588 350.981 188.59 369.252 180.517L369.284 180.502C387.558 172.427 406.008 164.281 432.359 164.773C458.573 165.262 476.965 174.146 495.142 182.926L495.423 183.062C513.706 191.893 531.812 200.576 557.681 200.851C583.544 201.127 601.645 192.73 619.929 184.236L619.978 184.213C638.233 175.733 656.677 167.165 683.011 167.445C709.063 167.723 727.394 176.771 745.449 185.683L746.09 185.999C764.372 195.021 782.467 203.8 808.319 203.524C833.993 203.25 852.017 193.731 870.188 184.133L870.549 183.943C888.816 174.295 907.282 164.632 933.665 164.773C960.05 164.913 978.516 174.914 996.779 184.824L996.855 184.865C1015.12 194.777 1033.2 204.585 1059 204.86C1084.84 205.136 1102.92 195.757 1121.21 186.257L1121.27 186.227C1139.52 176.75 1157.97 167.164 1184.33 167.445C1210.69 167.726 1230.12 176.974 1248.89 186.494C1249.86 186.986 1250.83 187.478 1251.79 187.971C1269.58 197.019 1287.03 205.901 1309.72 207.535C1333.7 209.263 1354.65 204.67 1372.41 199.018C1380.06 196.583 1387.1 193.956 1393.55 191.551C1394.59 191.163 1395.62 190.781 1396.62 190.407C1403.87 187.718 1410.34 185.406 1415.97 184.171C1416.4 184.075 1416.85 184.286 1416.97 184.643C1417.09 184.999 1416.83 185.366 1416.39 185.462C1410.92 186.663 1404.57 188.927 1397.3 191.623C1396.3 191.996 1395.28 192.377 1394.24 192.764C1387.79 195.168 1380.7 197.813 1373 200.263C1355.12 205.955 1333.9 210.619 1309.58 208.866C1286.49 207.203 1268.72 198.161 1251 189.141C1250 188.637 1249.01 188.132 1248.02 187.628C1229.26 178.113 1210.17 169.057 1184.31 168.781C1158.47 168.506 1140.39 177.885 1122.1 187.384L1122.04 187.415C1103.79 196.891 1085.33 206.477 1058.98 206.196C1032.69 205.916 1014.26 195.917 996.067 186.043L995.87 185.936C977.579 176.011 959.491 166.247 933.654 166.109C907.817 165.971 889.728 175.406 871.441 185.064L870.969 185.313C852.861 194.878 834.49 204.581 808.341 204.86C781.972 205.141 763.513 196.159 745.24 187.142L744.697 186.874C726.59 177.937 708.593 169.054 682.989 168.781C657.126 168.506 639.025 176.903 620.741 185.397L620.692 185.42C602.437 193.9 583.993 202.468 557.659 202.188C531.307 201.907 512.859 193.037 494.587 184.212L494.401 184.122C476.178 175.32 458.105 166.59 432.321 166.109C406.451 165.626 388.347 173.599 370.066 181.677L369.941 181.732C351.709 189.789 333.283 197.931 306.994 197.511C280.656 197.089 262.217 188.675 243.939 180.188L243.226 179.856C225.18 171.474 207.195 163.121 181.64 162.1C155.702 161.062 136.573 166.152 117.846 172.139C115.238 172.972 112.636 173.824 110.023 174.68Z" fill="#DEE2E6"/>
<path fill-rule="evenodd" clip-rule="evenodd" d="M110.023 163.99C93.8854 169.273 77.3484 174.686 56.4512 176.794C21.8016 180.289 -6.65434 177.962 -28.0918 176.209C-36.5776 175.516 -43.9637 174.912 -50.1989 174.794C-50.6517 174.786 -51.0102 174.48 -50.9998 174.111C-50.9893 173.742 -50.6138 173.45 -50.161 173.459C-43.7587 173.579 -36.2644 174.192 -27.6992 174.893C-6.29603 176.644 21.795 178.943 56.2497 175.468C76.9198 173.383 93.2491 168.039 109.388 162.757C112.007 161.9 114.621 161.044 117.247 160.205C136.054 154.193 155.438 149.024 181.721 150.075C207.669 151.112 225.949 159.603 243.958 167.969L244.751 168.337C263.028 176.824 281.144 185.071 307.026 185.485C332.882 185.898 350.981 177.901 369.252 169.827L369.284 169.812C387.558 161.737 406.008 153.591 432.359 154.083C458.573 154.572 476.965 163.456 495.142 172.236L495.423 172.372C513.706 181.203 531.812 189.886 557.681 190.161C583.544 190.437 601.645 182.04 619.929 173.546L619.978 173.523C638.233 165.043 656.677 156.475 683.011 156.755C709.063 157.033 727.394 166.081 745.449 174.993L746.09 175.309C764.372 184.331 782.467 193.11 808.319 192.834C833.993 192.56 852.017 183.041 870.188 173.443L870.549 173.253C888.816 163.605 907.282 153.942 933.665 154.083C960.05 154.224 978.516 164.224 996.779 174.134L996.855 174.175C1015.12 184.087 1033.2 193.895 1059 194.17C1084.84 194.446 1102.92 185.067 1121.21 175.568L1121.27 175.537C1139.52 166.061 1157.97 156.474 1184.33 156.755C1210.69 157.036 1230.12 166.285 1248.89 175.804C1249.86 176.296 1250.83 176.789 1251.79 177.281C1269.58 186.329 1287.03 195.211 1309.72 196.845C1333.7 198.573 1354.65 193.98 1372.41 188.328C1380.06 185.893 1387.1 183.266 1393.55 180.861C1394.59 180.473 1395.62 180.091 1396.62 179.717C1403.87 177.028 1410.34 174.716 1415.97 173.481C1416.4 173.385 1416.85 173.596 1416.97 173.953C1417.09 174.309 1416.83 174.676 1416.39 174.772C1410.92 175.973 1404.57 178.237 1397.3 180.933C1396.3 181.306 1395.28 181.687 1394.24 182.074C1387.79 184.478 1380.7 187.123 1373 189.573C1355.12 195.265 1333.9 199.929 1309.58 198.176C1286.49 196.513 1268.72 187.471 1251 178.452C1250 177.947 1249.01 177.442 1248.02 176.938C1229.26 167.423 1210.17 158.367 1184.31 158.092C1158.47 157.816 1140.39 167.195 1122.1 176.694L1122.04 176.725C1103.79 186.201 1085.33 195.787 1058.98 195.506C1032.69 195.226 1014.26 185.227 996.067 175.353L995.87 175.246C977.579 165.322 959.491 155.557 933.654 155.419C907.817 155.281 889.728 164.716 871.441 174.374L870.969 174.623C852.861 184.188 834.49 193.891 808.341 194.17C781.972 194.451 763.513 185.469 745.24 176.452L744.697 176.184C726.59 167.247 708.593 158.365 682.989 158.092C657.126 157.816 639.025 166.213 620.741 174.707L620.692 174.73C602.437 183.21 583.993 191.778 557.659 191.498C531.307 191.217 512.859 182.347 494.587 173.522L494.401 173.432C476.178 164.63 458.105 155.9 432.321 155.419C406.451 154.936 388.347 162.909 370.066 170.987L369.941 171.042C351.709 179.099 333.283 187.241 306.994 186.821C280.656 186.399 262.217 177.985 243.939 169.498L243.226 169.166C225.18 160.785 207.195 152.431 181.64 151.41C155.702 150.373 136.573 155.462 117.846 161.449C115.238 162.283 112.636 163.134 110.023 163.99Z" fill="#DEE2E6"/>
<path fill-rule="evenodd" clip-rule="evenodd" d="M110.023 153.3C93.8854 158.583 77.3484 163.996 56.4512 166.104C21.8016 169.599 -6.65434 167.272 -28.0918 165.519C-36.5776 164.826 -43.9637 164.222 -50.1989 164.105C-50.6517 164.096 -51.0102 163.79 -50.9998 163.421C-50.9893 163.052 -50.6138 162.76 -50.161 162.769C-43.7587 162.889 -36.2644 163.502 -27.6992 164.203C-6.29603 165.954 21.795 168.253 56.2497 164.778C76.9198 162.693 93.2491 157.349 109.388 152.067C112.007 151.21 114.621 150.354 117.247 149.515C136.054 143.503 155.438 138.334 181.721 139.385C207.669 140.422 225.949 148.913 243.958 157.279L244.751 157.647C263.028 166.134 281.144 174.381 307.026 174.795C332.882 175.208 350.981 167.211 369.252 159.137L369.284 159.122C387.558 151.047 406.008 142.901 432.359 143.393C458.573 143.882 476.965 152.766 495.142 161.546L495.423 161.682C513.706 170.513 531.812 179.196 557.681 179.472C583.544 179.747 601.645 171.35 619.929 162.856L619.978 162.833C638.233 154.353 656.677 145.785 683.011 146.065C709.063 146.343 727.394 155.391 745.449 164.303L746.09 164.619C764.372 173.641 782.467 182.42 808.319 182.144C833.993 181.87 852.017 172.351 870.188 162.753L870.549 162.563C888.816 152.915 907.282 143.252 933.665 143.393C960.05 143.534 978.516 153.534 996.779 163.444L996.855 163.485C1015.12 173.397 1033.2 183.205 1059 183.48C1084.84 183.756 1102.92 174.377 1121.21 164.878L1121.27 164.847C1139.52 155.371 1157.97 145.784 1184.33 146.065C1210.69 146.346 1230.12 155.595 1248.89 165.114C1249.86 165.606 1250.83 166.099 1251.79 166.591C1269.58 175.639 1287.03 184.521 1309.72 186.155C1333.7 187.883 1354.65 183.29 1372.41 177.638C1380.06 175.203 1387.1 172.576 1393.55 170.171C1394.59 169.783 1395.62 169.401 1396.62 169.027C1403.87 166.338 1410.34 164.026 1415.97 162.791C1416.4 162.695 1416.85 162.906 1416.97 163.263C1417.09 163.619 1416.83 163.986 1416.39 164.082C1410.92 165.283 1404.57 167.547 1397.3 170.243C1396.3 170.616 1395.28 170.997 1394.24 171.384C1387.79 173.788 1380.7 176.433 1373 178.883C1355.12 184.575 1333.9 189.239 1309.58 187.486C1286.49 185.823 1268.72 176.781 1251 167.762C1250 167.257 1249.01 166.752 1248.02 166.248C1229.26 156.733 1210.17 147.677 1184.31 147.402C1158.47 147.126 1140.39 156.505 1122.1 166.004L1122.04 166.035C1103.79 175.511 1085.33 185.097 1058.98 184.816C1032.69 184.536 1014.26 174.537 996.067 164.663L995.87 164.556C977.579 154.632 959.491 144.867 933.654 144.729C907.817 144.591 889.728 154.026 871.441 163.684L870.969 163.933C852.861 173.498 834.49 183.201 808.341 183.48C781.972 183.761 763.513 174.779 745.24 165.762L744.697 165.494C726.59 156.557 708.593 147.675 682.989 147.402C657.126 147.126 639.025 155.523 620.741 164.017L620.692 164.04C602.437 172.52 583.993 181.088 557.659 180.808C531.307 180.527 512.859 171.657 494.587 162.832L494.401 162.742C476.178 153.94 458.105 145.21 432.321 144.729C406.451 144.246 388.347 152.219 370.066 160.297L369.941 160.352C351.709 168.409 333.283 176.551 306.994 176.131C280.656 175.71 262.217 167.295 243.939 158.808L243.226 158.476C225.18 150.095 207.195 141.741 181.64 140.72C155.702 139.683 136.573 144.772 117.846 150.759C115.238 151.593 112.636 152.444 110.023 153.3Z" fill="#DEE2E6"/>
<path fill-rule="evenodd" clip-rule="evenodd" d="M110.023 142.61C93.8854 147.893 77.3484 153.306 56.4512 155.414C21.8016 158.909 -6.65434 156.582 -28.0918 154.83C-36.5776 154.136 -43.9637 153.532 -50.1989 153.415C-50.6517 153.406 -51.0102 153.1 -50.9998 152.731C-50.9893 152.362 -50.6138 152.07 -50.161 152.079C-43.7587 152.199 -36.2644 152.812 -27.6992 153.513C-6.29603 155.264 21.795 157.563 56.2497 154.088C76.9198 152.003 93.2491 146.659 109.388 141.377C112.007 140.52 114.621 139.664 117.247 138.825C136.054 132.813 155.438 127.644 181.721 128.695C207.669 129.733 225.949 138.223 243.958 146.589L244.751 146.957C263.028 155.444 281.144 163.691 307.026 164.105C332.882 164.518 350.981 156.521 369.252 148.447L369.284 148.432C387.558 140.357 406.008 132.212 432.359 132.703C458.573 133.192 476.965 142.076 495.142 150.856L495.423 150.992C513.706 159.823 531.812 168.506 557.681 168.782C583.544 169.057 601.645 160.66 619.929 152.166L619.978 152.143C638.233 143.663 656.677 135.095 683.011 135.376C709.063 135.653 727.394 144.701 745.449 153.613L746.09 153.929C764.372 162.951 782.467 171.73 808.319 171.454C833.993 171.18 852.017 161.661 870.188 152.063L870.549 151.873C888.816 142.225 907.282 132.562 933.665 132.703C960.05 132.844 978.516 142.844 996.779 152.754L996.855 152.795C1015.12 162.707 1033.2 172.515 1059 172.79C1084.84 173.066 1102.92 163.687 1121.21 154.188L1121.27 154.157C1139.52 144.681 1157.97 135.095 1184.33 135.376C1210.69 135.657 1230.12 144.905 1248.89 154.424C1249.86 154.916 1250.83 155.409 1251.79 155.901C1269.58 164.949 1287.03 173.831 1309.72 175.465C1333.7 177.193 1354.65 172.6 1372.41 166.948C1380.06 164.513 1387.1 161.886 1393.55 159.481C1394.59 159.093 1395.62 158.711 1396.62 158.337C1403.87 155.648 1410.34 153.336 1415.97 152.102C1416.4 152.006 1416.85 152.217 1416.97 152.573C1417.09 152.929 1416.83 153.296 1416.39 153.392C1410.92 154.593 1404.57 156.857 1397.3 159.553C1396.3 159.926 1395.28 160.307 1394.24 160.694C1387.79 163.098 1380.7 165.743 1373 168.193C1355.12 173.885 1333.9 178.549 1309.58 176.796C1286.49 175.133 1268.72 166.091 1251 157.072C1250 156.567 1249.01 156.062 1248.02 155.558C1229.26 146.043 1210.17 136.987 1184.31 136.712C1158.47 136.436 1140.39 145.815 1122.1 155.314L1122.04 155.345C1103.79 164.821 1085.33 174.407 1058.98 174.126C1032.69 173.846 1014.26 163.847 996.067 153.973L995.87 153.866C977.579 143.942 959.491 134.177 933.654 134.039C907.817 133.901 889.728 143.336 871.441 152.994L870.969 153.243C852.861 162.808 834.49 172.511 808.341 172.79C781.972 173.071 763.513 164.089 745.24 155.072L744.697 154.804C726.59 145.867 708.593 136.985 682.989 136.712C657.126 136.436 639.025 144.833 620.741 153.327L620.692 153.35C602.437 161.83 583.993 170.399 557.659 170.118C531.307 169.837 512.859 160.967 494.587 152.142L494.401 152.052C476.178 143.25 458.105 134.52 432.321 134.039C406.451 133.556 388.347 141.529 370.066 149.607L369.941 149.662C351.709 157.719 333.283 165.861 306.994 165.441C280.656 165.02 262.217 156.605 243.939 148.118L243.226 147.787C225.18 139.405 207.195 131.051 181.64 130.03C155.702 128.993 136.573 134.082 117.846 140.069C115.238 140.903 112.636 141.755 110.023 142.61Z" fill="#DEE2E6"/>
<path fill-rule="evenodd" clip-rule="evenodd" d="M110.023 131.92C93.8854 137.203 77.3484 142.617 56.4512 144.724C21.8016 148.219 -6.65434 145.892 -28.0918 144.14C-36.5776 143.446 -43.9637 142.842 -50.1989 142.725C-50.6517 142.716 -51.0102 142.41 -50.9998 142.041C-50.9893 141.672 -50.6138 141.38 -50.161 141.389C-43.7587 141.509 -36.2644 142.122 -27.6992 142.823C-6.29603 144.574 21.795 146.873 56.2497 143.398C76.9198 141.313 93.2491 135.969 109.388 130.687C112.007 129.83 114.621 128.975 117.247 128.135C136.054 122.123 155.438 116.954 181.721 118.005C207.669 119.043 225.949 127.533 243.958 135.899L244.751 136.267C263.028 144.754 281.144 153.001 307.026 153.415C332.882 153.828 350.981 145.831 369.252 137.757L369.284 137.743C387.558 129.667 406.008 121.522 432.359 122.013C458.573 122.502 476.965 131.386 495.142 140.166L495.423 140.302C513.706 149.133 531.812 157.816 557.681 158.092C583.544 158.367 601.645 149.97 619.929 141.476L619.978 141.453C638.233 132.973 656.677 124.405 683.011 124.686C709.063 124.963 727.394 134.011 745.449 142.923L746.09 143.239C764.372 152.261 782.467 161.04 808.319 160.764C833.993 160.49 852.017 150.971 870.188 141.373L870.549 141.183C888.816 131.535 907.282 121.872 933.665 122.013C960.05 122.154 978.516 132.154 996.779 142.064L996.855 142.105C1015.12 152.017 1033.2 161.825 1059 162.1C1084.84 162.376 1102.92 152.997 1121.21 143.498L1121.27 143.467C1139.52 133.991 1157.97 124.405 1184.33 124.686C1210.69 124.967 1230.12 134.215 1248.89 143.734C1249.86 144.226 1250.83 144.719 1251.79 145.211C1269.58 154.259 1287.03 163.141 1309.72 164.775C1333.7 166.503 1354.65 161.911 1372.41 156.258C1380.06 153.823 1387.1 151.196 1393.55 148.791C1394.59 148.403 1395.62 148.022 1396.62 147.647C1403.87 144.958 1410.34 142.646 1415.97 141.412C1416.4 141.316 1416.85 141.527 1416.97 141.883C1417.09 142.239 1416.83 142.606 1416.39 142.702C1410.92 143.903 1404.57 146.167 1397.3 148.863C1396.3 149.236 1395.28 149.617 1394.24 150.004C1387.79 152.408 1380.7 155.053 1373 157.503C1355.12 163.195 1333.9 167.859 1309.58 166.106C1286.49 164.443 1268.72 155.401 1251 146.382C1250 145.877 1249.01 145.372 1248.02 144.868C1229.26 135.353 1210.17 126.297 1184.31 126.022C1158.47 125.746 1140.39 135.125 1122.1 144.624L1122.04 144.655C1103.79 154.131 1085.33 163.717 1058.98 163.437C1032.69 163.156 1014.26 153.157 996.067 143.283L995.87 143.176C977.579 133.252 959.491 123.487 933.654 123.349C907.817 123.212 889.728 132.646 871.441 142.304L870.969 142.553C852.861 152.118 834.49 161.821 808.341 162.1C781.972 162.381 763.513 153.399 745.24 144.382L744.697 144.114C726.59 135.177 708.593 126.295 682.989 126.022C657.126 125.746 639.025 134.143 620.741 142.637L620.692 142.66C602.437 151.14 583.993 159.709 557.659 159.428C531.307 159.147 512.859 150.277 494.587 141.452L494.401 141.362C476.178 132.56 458.105 123.83 432.321 123.349C406.451 122.866 388.347 130.839 370.066 138.917L369.941 138.973C351.709 147.029 333.283 155.171 306.994 154.751C280.656 154.33 262.217 145.915 243.939 137.428L243.226 137.097C225.18 128.715 207.195 120.362 181.64 119.34C155.702 118.303 136.573 123.392 117.846 129.379C115.238 130.213 112.636 131.065 110.023 131.92Z" fill="#DEE2E6"/>
<path fill-rule="evenodd" clip-rule="evenodd" d="M110.023 121.23C93.8854 126.513 77.3484 131.927 56.4512 134.034C21.8016 137.529 -6.65434 135.202 -28.0918 133.45C-36.5776 132.756 -43.9637 132.152 -50.1989 132.035C-50.6517 132.026 -51.0102 131.72 -50.9998 131.351C-50.9893 130.982 -50.6138 130.69 -50.161 130.699C-43.7587 130.819 -36.2644 131.432 -27.6992 132.133C-6.29603 133.885 21.795 136.183 56.2497 132.708C76.9198 130.623 93.2491 125.279 109.388 119.997C112.007 119.14 114.621 118.285 117.247 117.445C136.054 111.433 155.438 106.264 181.721 107.315C207.669 108.353 225.949 116.843 243.958 125.209L244.751 125.577C263.028 134.064 281.144 142.311 307.026 142.725C332.882 143.138 350.981 135.141 369.252 127.067L369.284 127.053C387.558 118.978 406.008 110.832 432.359 111.323C458.573 111.812 476.965 120.696 495.142 129.476L495.423 129.612C513.706 138.443 531.812 147.126 557.681 147.402C583.544 147.677 601.645 139.28 619.929 130.786L619.978 130.763C638.233 122.283 656.677 113.715 683.011 113.996C709.063 114.273 727.394 123.321 745.449 132.233L746.09 132.549C764.372 141.571 782.467 150.35 808.319 150.074C833.993 149.8 852.017 140.281 870.188 130.683L870.549 130.493C888.816 120.845 907.282 111.182 933.665 111.323C960.05 111.464 978.516 121.464 996.779 131.374L996.855 131.415C1015.12 141.327 1033.2 151.135 1059 151.41C1084.84 151.686 1102.92 142.307 1121.21 132.808L1121.27 132.777C1139.52 123.301 1157.97 113.715 1184.33 113.996C1210.69 114.277 1230.12 123.525 1248.89 133.044C1249.86 133.536 1250.83 134.029 1251.79 134.521C1269.58 143.569 1287.03 152.451 1309.72 154.085C1333.7 155.813 1354.65 151.221 1372.41 145.568C1380.06 143.133 1387.1 140.506 1393.55 138.101C1394.59 137.714 1395.62 137.332 1396.62 136.957C1403.87 134.268 1410.34 131.956 1415.97 130.722C1416.4 130.626 1416.85 130.837 1416.97 131.193C1417.09 131.549 1416.83 131.916 1416.39 132.012C1410.92 133.213 1404.57 135.477 1397.3 138.173C1396.3 138.546 1395.28 138.927 1394.24 139.314C1387.79 141.718 1380.7 144.363 1373 146.813C1355.12 152.505 1333.9 157.169 1309.58 155.417C1286.49 153.753 1268.72 144.711 1251 135.692C1250 135.187 1249.01 134.682 1248.02 134.178C1229.26 124.663 1210.17 115.608 1184.31 115.332C1158.47 115.056 1140.39 124.435 1122.1 133.934L1122.04 133.965C1103.79 143.441 1085.33 153.028 1058.98 152.747C1032.69 152.466 1014.26 142.468 996.067 132.593L995.87 132.487C977.579 122.562 959.491 112.797 933.654 112.659C907.817 112.522 889.728 121.956 871.441 131.614L870.969 131.864C852.861 141.428 834.49 151.132 808.341 151.41C781.972 151.691 763.513 142.709 745.24 133.692L744.697 133.424C726.59 124.487 708.593 115.605 682.989 115.332C657.126 115.056 639.025 123.454 620.741 131.947L620.692 131.97C602.437 140.45 583.993 149.019 557.659 148.738C531.307 148.457 512.859 139.587 494.587 130.762L494.401 130.672C476.178 121.87 458.105 113.14 432.321 112.659C406.451 112.176 388.347 120.149 370.066 128.227L369.941 128.283C351.709 136.339 333.283 144.481 306.994 144.061C280.656 143.64 262.217 135.225 243.939 126.738L243.226 126.407C225.18 118.025 207.195 109.672 181.64 108.65C155.702 107.613 136.573 112.702 117.846 118.689C115.238 119.523 112.636 120.375 110.023 121.23Z" fill="#DEE2E6"/>
<path fill-rule="evenodd" clip-rule="evenodd" d="M110.023 110.54C93.8854 115.823 77.3484 121.237 56.4512 123.344C21.8016 126.839 -6.65434 124.512 -28.0918 122.76C-36.5776 122.066 -43.9637 121.462 -50.1989 121.345C-50.6517 121.336 -51.0102 121.03 -50.9998 120.661C-50.9893 120.292 -50.6138 120 -50.161 120.009C-43.7587 120.129 -36.2644 120.743 -27.6992 121.443C-6.29603 123.195 21.795 125.493 56.2497 122.018C76.9198 119.933 93.2491 114.589 109.388 109.307C112.007 108.45 114.621 107.595 117.247 106.755C136.054 100.743 155.438 95.5745 181.721 96.6253C207.669 97.6627 225.949 106.154 243.958 114.519L244.751 114.887C263.028 123.374 281.144 131.621 307.026 132.035C332.882 132.449 350.981 124.451 369.252 116.377L369.284 116.363C387.558 108.288 406.008 100.142 432.359 100.633C458.573 101.122 476.965 110.007 495.142 118.786L495.423 118.922C513.706 127.753 531.812 136.436 557.681 136.712C583.544 136.988 601.645 128.59 619.929 120.096L619.978 120.074C638.233 111.593 656.677 103.025 683.011 103.306C709.063 103.583 727.394 112.631 745.449 121.543L746.09 121.859C764.372 130.881 782.467 139.66 808.319 139.384C833.993 139.111 852.017 129.591 870.188 119.994L870.549 119.803C888.816 110.155 907.282 100.493 933.665 100.633C960.05 100.774 978.516 110.774 996.779 120.684L996.855 120.725C1015.12 130.637 1033.2 140.445 1059 140.721C1084.84 140.996 1102.92 131.617 1121.21 122.118L1121.27 122.087C1139.52 112.611 1157.97 103.025 1184.33 103.306C1210.69 103.587 1230.12 112.835 1248.89 122.354C1249.86 122.846 1250.83 123.339 1251.79 123.831C1269.58 132.879 1287.03 141.761 1309.72 143.396C1333.7 145.123 1354.65 140.531 1372.41 134.878C1380.06 132.443 1387.1 129.816 1393.55 127.411C1394.59 127.024 1395.62 126.642 1396.62 126.267C1403.87 123.578 1410.34 121.266 1415.97 120.032C1416.4 119.936 1416.85 120.147 1416.97 120.503C1417.09 120.859 1416.83 121.226 1416.39 121.322C1410.92 122.523 1404.57 124.787 1397.3 127.483C1396.3 127.856 1395.28 128.237 1394.24 128.624C1387.79 131.029 1380.7 133.673 1373 136.123C1355.12 141.815 1333.9 146.479 1309.58 144.727C1286.49 143.063 1268.72 134.021 1251 125.002C1250 124.497 1249.01 123.992 1248.02 123.489C1229.26 113.973 1210.17 104.918 1184.31 104.642C1158.47 104.366 1140.39 113.745 1122.1 123.245L1122.04 123.275C1103.79 132.752 1085.33 142.338 1058.98 142.057C1032.69 141.776 1014.26 131.778 996.067 121.903L995.87 121.797C977.579 111.872 959.491 102.107 933.654 101.969C907.817 101.832 889.728 111.266 871.441 120.924L870.969 121.174C852.861 130.738 834.49 140.442 808.341 140.72C781.972 141.002 763.513 132.019 745.24 123.002L744.697 122.734C726.59 113.797 708.593 104.915 682.989 104.642C657.126 104.366 639.025 112.764 620.741 121.257L620.692 121.28C602.437 129.76 583.993 138.329 557.659 138.048C531.307 137.767 512.859 128.897 494.587 120.072L494.401 119.982C476.178 111.18 458.105 102.45 432.321 101.969C406.451 101.487 388.347 109.459 370.066 117.537L369.941 117.593C351.709 125.649 333.283 133.791 306.994 133.371C280.656 132.95 262.217 124.535 243.939 116.048L243.226 115.717C225.18 107.335 207.195 98.9816 181.64 97.9599C155.702 96.9228 136.573 102.013 117.846 107.999C115.238 108.833 112.636 109.685 110.023 110.54Z" fill="#DEE2E6"/>
<path fill-rule="evenodd" clip-rule="evenodd" d="M110.023 99.8501C93.8854 105.133 77.3484 110.547 56.4512 112.654C21.8016 116.149 -6.65434 113.822 -28.0918 112.07C-36.5776 111.376 -43.9637 110.772 -50.1989 110.655C-50.6517 110.646 -51.0102 110.34 -50.9998 109.971C-50.9893 109.603 -50.6138 109.31 -50.161 109.319C-43.7587 109.439 -36.2644 110.053 -27.6992 110.753C-6.29603 112.505 21.795 114.803 56.2497 111.328C76.9198 109.244 93.2491 103.899 109.388 98.6171C112.007 97.7601 114.621 96.9047 117.247 96.0651C136.054 90.0533 155.438 84.8845 181.721 85.9353C207.669 86.9728 225.949 95.4636 243.958 103.829L244.751 104.197C263.028 112.684 281.144 120.931 307.026 121.345C332.882 121.759 350.981 113.761 369.252 105.687L369.284 105.673C387.558 97.5977 406.008 89.4518 432.359 89.9434C458.573 90.4325 476.965 99.3166 495.142 108.097L495.423 108.233C513.706 117.063 531.812 125.746 557.681 126.022C583.544 126.298 601.645 117.9 619.929 109.406L619.978 109.384C638.233 100.903 656.677 92.335 683.011 92.6158C709.063 92.8936 727.394 101.941 745.449 110.853L746.09 111.169C764.372 120.191 782.467 128.97 808.319 128.694C833.993 128.421 852.017 118.901 870.188 109.304L870.549 109.113C888.816 99.4654 907.282 89.8026 933.665 89.9433C960.05 90.0839 978.516 100.085 996.779 109.995L996.855 110.035C1015.12 119.947 1033.2 129.755 1059 130.031C1084.84 130.306 1102.92 120.927 1121.21 111.428L1121.27 111.397C1139.52 101.921 1157.97 92.3348 1184.33 92.6158C1210.69 92.8968 1230.12 102.145 1248.89 111.664C1249.86 112.156 1250.83 112.649 1251.79 113.141C1269.58 122.189 1287.03 131.071 1309.72 132.706C1333.7 134.433 1354.65 129.841 1372.41 124.189C1380.06 121.754 1387.1 119.126 1393.55 116.721C1394.59 116.334 1395.62 115.952 1396.62 115.577C1403.87 112.888 1410.34 110.576 1415.97 109.342C1416.4 109.246 1416.85 109.457 1416.97 109.813C1417.09 110.169 1416.83 110.536 1416.39 110.632C1410.92 111.833 1404.57 114.097 1397.3 116.793C1396.3 117.166 1395.28 117.547 1394.24 117.934C1387.79 120.339 1380.7 122.983 1373 125.433C1355.12 131.125 1333.9 135.789 1309.58 134.037C1286.49 132.373 1268.72 123.331 1251 114.312C1250 113.807 1249.01 113.302 1248.02 112.799C1229.26 103.283 1210.17 94.2277 1184.31 93.9519C1158.47 93.6765 1140.39 103.055 1122.1 112.555L1122.04 112.585C1103.79 122.062 1085.33 131.648 1058.98 131.367C1032.69 131.086 1014.26 121.088 996.067 111.213L995.87 111.107C977.579 101.182 959.491 91.4172 933.654 91.2795C907.817 91.1417 889.728 100.576 871.441 110.234L870.969 110.484C852.861 120.048 834.49 129.752 808.341 130.03C781.972 130.312 763.513 121.329 745.24 112.312L744.697 112.044C726.59 103.107 708.593 94.2249 682.989 93.9519C657.126 93.6762 639.025 102.074 620.741 110.567L620.692 110.59C602.437 119.071 583.993 127.639 557.659 127.358C531.307 127.077 512.859 118.208 494.587 109.382L494.401 109.292C476.178 100.49 458.105 91.7604 432.321 91.2793C406.451 90.7966 388.347 98.7692 370.066 106.847L369.941 106.903C351.709 114.959 333.283 123.102 306.994 122.681C280.656 122.26 262.217 113.846 243.939 105.358L243.226 105.027C225.18 96.6449 207.195 88.2917 181.64 87.27C155.702 86.2329 136.573 91.3226 117.846 97.3091C115.238 98.1429 112.636 98.9948 110.023 99.8501Z" fill="#DEE2E6"/>
<path fill-rule="evenodd" clip-rule="evenodd" d="M110.023 89.1602C93.8854 94.4431 77.3484 99.8568 56.4512 101.964C21.8016 105.459 -6.65434 103.132 -28.0918 101.38C-36.5776 100.686 -43.9637 100.082 -50.1989 99.9649C-50.6517 99.9564 -51.0102 99.6504 -50.9998 99.2815C-50.9893 98.9126 -50.6138 98.6205 -50.161 98.629C-43.7587 98.7495 -36.2644 99.3626 -27.6992 100.063C-6.29603 101.815 21.795 104.113 56.2497 100.638C76.9198 98.5536 93.2491 93.2093 109.388 87.9272C112.007 87.0702 114.621 86.2148 117.247 85.3752C136.054 79.3633 155.438 74.1946 181.721 75.2454C207.669 76.2829 225.949 84.7737 243.958 93.139L244.751 93.5072C263.028 101.994 281.144 110.241 307.026 110.655C332.882 111.069 350.981 103.071 369.252 94.9973L369.284 94.9828C387.558 86.9077 406.008 78.7618 432.359 79.2535C458.573 79.7426 476.965 88.6266 495.142 97.4066L495.423 97.5426C513.706 106.373 531.812 115.056 557.681 115.332C583.544 115.608 601.645 107.21 619.929 98.7166L619.978 98.6936C638.233 90.2133 656.677 81.6451 683.011 81.9259C709.063 82.2036 727.394 91.2511 745.449 100.163L746.09 100.479C764.372 109.501 782.467 118.28 808.319 118.004C833.993 117.731 852.017 108.211 870.188 98.6136L870.549 98.4231C888.816 88.7755 907.282 79.1127 933.665 79.2533C960.05 79.394 978.516 89.3946 996.779 99.3046L996.855 99.3455C1015.12 109.258 1033.2 119.066 1059 119.341C1084.84 119.616 1102.92 110.238 1121.21 100.738L1121.27 100.707C1139.52 91.231 1157.97 81.6449 1184.33 81.9259C1210.69 82.2069 1230.12 91.455 1248.89 100.974C1249.86 101.466 1250.83 101.959 1251.79 102.451C1269.58 111.499 1287.03 120.381 1309.72 122.016C1333.7 123.743 1354.65 119.151 1372.41 113.499C1380.06 111.064 1387.1 108.436 1393.55 106.031C1394.59 105.644 1395.62 105.262 1396.62 104.887C1403.87 102.198 1410.34 99.8864 1415.97 98.6518C1416.4 98.5558 1416.85 98.7669 1416.97 99.1232C1417.09 99.4794 1416.83 99.8461 1416.39 99.9421C1410.92 101.143 1404.57 103.407 1397.3 106.103C1396.3 106.476 1395.28 106.857 1394.24 107.244C1387.79 109.649 1380.7 112.293 1373 114.743C1355.12 120.435 1333.9 125.099 1309.58 123.347C1286.49 121.683 1268.72 112.641 1251 103.622C1250 103.117 1249.01 102.612 1248.02 102.109C1229.26 92.5934 1210.17 83.5377 1184.31 83.262C1158.47 82.9865 1140.39 92.3651 1122.1 101.865L1122.04 101.895C1103.79 111.372 1085.33 120.958 1058.98 120.677C1032.69 120.397 1014.26 110.398 996.067 100.523L995.87 100.417C977.579 90.4919 959.491 80.7273 933.654 80.5896C907.817 80.4518 889.728 89.8861 871.441 99.5444L870.969 99.7937C852.861 109.358 834.49 119.062 808.341 119.341C781.972 119.622 763.513 110.64 745.24 101.622L744.697 101.354C726.59 92.4175 708.593 83.535 682.989 83.262C657.126 82.9862 639.025 91.3837 620.741 99.8773L620.692 99.9002C602.437 108.381 583.993 116.949 557.659 116.668C531.307 116.387 512.859 107.518 494.587 98.692L494.401 98.6025C476.178 89.8002 458.105 81.0705 432.321 80.5894C406.451 80.1067 388.347 88.0793 370.066 96.1574L369.941 96.2128C351.709 104.269 333.283 112.412 306.994 111.991C280.656 111.57 262.217 103.156 243.939 94.6682L243.226 94.3369C225.18 85.955 207.195 77.6018 181.64 76.58C155.702 75.543 136.573 80.6327 117.846 86.6191C115.238 87.453 112.636 88.3049 110.023 89.1602Z" fill="#DEE2E6"/>
<path fill-rule="evenodd" clip-rule="evenodd" d="M110.023 78.4702C93.8854 83.7531 77.3484 89.1668 56.4512 91.2744C21.8016 94.769 -6.65434 92.4426 -28.0918 90.6899C-36.5776 89.9961 -43.9637 89.3923 -50.1989 89.2749C-50.6517 89.2664 -51.0102 88.9605 -50.9998 88.5916C-50.9893 88.2227 -50.6138 87.9305 -50.161 87.9391C-43.7587 88.0595 -36.2644 88.6727 -27.6992 89.3735C-6.29603 91.1248 21.795 93.4232 56.2497 89.9483C76.9198 87.8636 93.2491 82.5193 109.388 77.2373C112.007 76.3802 114.621 75.5248 117.247 74.6853C136.054 68.6734 155.438 63.5046 181.721 64.5555C207.669 65.5929 225.949 74.0837 243.958 82.449L244.751 82.8173C263.028 91.3043 281.144 99.5513 307.026 99.9652C332.882 100.379 350.981 92.3811 369.252 84.3073L369.284 84.2928C387.558 76.2178 406.008 68.0719 432.359 68.5635C458.573 69.0526 476.965 77.9367 495.142 86.7166L495.423 86.8526C513.706 95.6835 531.812 104.366 557.681 104.642C583.544 104.918 601.645 96.5202 619.929 88.0266L619.978 88.0037C638.233 79.5234 656.677 70.9551 683.011 71.2359C709.063 71.5137 727.394 80.5612 745.449 89.4733L746.09 89.7894C764.372 98.8113 782.467 107.59 808.319 107.314C833.993 107.041 852.017 97.5211 870.188 87.9237L870.549 87.7332C888.816 78.0855 907.282 68.4227 933.665 68.5634C960.05 68.704 978.516 78.7046 996.779 88.6147L996.855 88.6556C1015.12 98.5676 1033.2 108.376 1059 108.651C1084.84 108.926 1102.92 99.5475 1121.21 90.048L1121.27 90.0172C1139.52 80.541 1157.97 70.9549 1184.33 71.2359C1210.69 71.5169 1230.12 80.765 1248.89 90.2843C1249.86 90.7763 1250.83 91.269 1251.79 91.7612C1269.58 100.81 1287.03 109.691 1309.72 111.326C1333.7 113.053 1354.65 108.461 1372.41 102.809C1380.06 100.374 1387.1 97.7462 1393.55 95.3415C1394.59 94.9538 1395.62 94.5718 1396.62 94.1974C1403.87 91.5085 1410.34 89.1965 1415.97 87.9619C1416.4 87.8659 1416.85 88.0769 1416.97 88.4332C1417.09 88.7895 1416.83 89.1561 1416.39 89.2521C1410.92 90.4534 1404.57 92.7173 1397.3 95.4134C1396.3 95.7863 1395.28 96.1673 1394.24 96.5545C1387.79 98.9587 1380.7 101.603 1373 104.053C1355.12 109.745 1333.9 114.409 1309.58 112.657C1286.49 110.993 1268.72 101.951 1251 92.932C1250 92.4271 1249.01 91.9222 1248.02 91.4187C1229.26 81.9034 1210.17 72.8478 1184.31 72.5721C1158.47 72.2966 1140.39 81.6752 1122.1 91.1747L1122.04 91.2055C1103.79 100.682 1085.33 110.268 1058.98 109.987C1032.69 109.707 1014.26 99.7078 996.067 89.8333L995.87 89.7268C977.579 79.802 959.491 70.0373 933.654 69.8996C907.817 69.7619 889.728 79.1962 871.441 88.8545L870.969 89.1037C852.861 98.6682 834.49 108.372 808.341 108.651C781.972 108.932 763.513 99.9496 745.24 90.9323L744.697 90.6643C726.59 81.7276 708.593 72.845 682.989 72.5721C657.126 72.2963 639.025 80.6938 620.741 89.1874L620.692 89.2103C602.437 97.6906 583.993 106.259 557.659 105.978C531.307 105.697 512.859 96.8276 494.587 88.0021L494.401 87.9125C476.178 79.1102 458.105 70.3805 432.321 69.8994C406.451 69.4167 388.347 77.3893 370.066 85.4674L369.941 85.5228C351.709 93.5793 333.283 101.722 306.994 101.301C280.656 100.88 262.217 92.4657 243.939 83.9782L243.226 83.6469C225.18 75.2651 207.195 66.9118 181.64 65.8901C155.702 64.853 136.573 69.9427 117.846 75.9292C115.238 76.763 112.636 77.6149 110.023 78.4702Z" fill="#DEE2E6"/>
<path fill-rule="evenodd" clip-rule="evenodd" d="M110.023 67.7803C93.8854 73.0632 77.3484 78.4769 56.4512 80.5845C21.8016 84.0791 -6.65434 81.7526 -28.0918 80C-36.5776 79.3062 -43.9637 78.7023 -50.1989 78.585C-50.6517 78.5765 -51.0102 78.2705 -50.9998 77.9016C-50.9893 77.5327 -50.6138 77.2406 -50.161 77.2491C-43.7587 77.3696 -36.2644 77.9828 -27.6992 78.6836C-6.29603 80.4348 21.795 82.7333 56.2497 79.2584C76.9198 77.1737 93.2491 71.8294 109.388 66.5473C112.007 65.6903 114.621 64.8349 117.247 63.9953C136.054 57.9835 155.438 52.8147 181.721 53.8655C207.669 54.903 225.949 63.3938 243.958 71.7591L244.751 72.1273C263.028 80.6143 281.144 88.8613 307.026 89.2753C332.882 89.6888 350.981 81.6911 369.252 73.6174L369.284 73.6029C387.558 65.5278 406.008 57.382 432.359 57.8736C458.573 58.3627 476.965 67.2467 495.142 76.0267L495.423 76.1627C513.706 84.9936 531.812 93.6762 557.681 93.952C583.544 94.2278 601.645 85.8303 619.929 77.3367L619.978 77.3138C638.233 68.8335 656.677 60.2652 683.011 60.546C709.063 60.8237 727.394 69.8712 745.449 78.7833L746.09 79.0994C764.372 88.1214 782.467 96.9001 808.319 96.6245C833.993 96.3508 852.017 86.8312 870.188 77.2338L870.549 77.0433C888.816 67.3956 907.282 57.7328 933.665 57.8735C960.05 58.0141 978.516 68.0147 996.779 77.9247L996.855 77.9656C1015.12 87.8776 1033.2 97.6857 1059 97.9608C1084.84 98.2362 1102.92 88.8576 1121.21 79.358L1121.27 79.3273C1139.52 69.8511 1157.97 60.265 1184.33 60.546C1210.69 60.827 1230.12 70.0751 1248.89 79.5943C1249.86 80.0864 1250.83 80.5791 1251.79 81.0713C1269.58 90.1196 1287.03 99.0014 1309.72 100.636C1333.7 102.363 1354.65 97.7708 1372.41 92.1187C1380.06 89.6837 1387.1 87.0563 1393.55 84.6516C1394.59 84.2638 1395.62 83.8819 1396.62 83.5075C1403.87 80.8186 1410.34 78.5065 1415.97 77.272C1416.4 77.176 1416.85 77.387 1416.97 77.7433C1417.09 78.0996 1416.83 78.4662 1416.39 78.5622C1410.92 79.7635 1404.57 82.0273 1397.3 84.7234C1396.3 85.0964 1395.28 85.4773 1394.24 85.8645C1387.79 88.2688 1380.7 90.9134 1373 93.3633C1355.12 99.0553 1333.9 103.719 1309.58 101.967C1286.49 100.303 1268.72 91.2613 1251 82.2421C1250 81.7371 1249.01 81.2323 1248.02 80.7288C1229.26 71.2135 1210.17 62.1579 1184.31 61.8821C1158.47 61.6066 1140.39 70.9852 1122.1 80.4848L1122.04 80.5156C1103.79 89.9918 1085.33 99.5779 1058.98 99.2969C1032.69 99.0166 1014.26 89.0179 996.067 79.1434L995.87 79.0369C977.579 69.1121 959.491 59.3474 933.654 59.2097C907.817 59.0719 889.728 68.5062 871.441 78.1645L870.969 78.4138C852.861 87.9783 834.49 97.6819 808.341 97.9607C781.972 98.2418 763.513 89.2597 745.24 80.2424L744.697 79.9743C726.59 71.0376 708.593 62.1551 682.989 61.8821C657.126 61.6064 639.025 70.0038 620.741 78.4975L620.692 78.5204C602.437 87.0007 583.993 95.5689 557.659 95.2882C531.307 95.0072 512.859 86.1377 494.587 77.3121L494.401 77.2226C476.178 68.4203 458.105 59.6906 432.321 59.2095C406.451 58.7268 388.347 66.6994 370.066 74.7775L369.941 74.8329C351.709 82.8894 333.283 91.0317 306.994 90.6113C280.656 90.19 262.217 81.7757 243.939 73.2883L243.226 72.957C225.18 64.5751 207.195 56.2219 181.64 55.2001C155.702 54.1631 136.573 59.2528 117.846 65.2393C115.238 66.0731 112.636 66.925 110.023 67.7803Z" fill="#DEE2E6"/>
<path fill-rule="evenodd" clip-rule="evenodd" d="M110.023 57.0903C93.8854 62.3732 77.3484 67.787 56.4512 69.8945C21.8016 73.3891 -6.65434 71.0627 -28.0918 69.31C-36.5776 68.6163 -43.9637 68.0124 -50.1989 67.8951C-50.6517 67.8866 -51.0102 67.5806 -50.9998 67.2117C-50.9893 66.8428 -50.6138 66.5507 -50.161 66.5592C-43.7587 66.6796 -36.2644 67.2928 -27.6992 67.9937C-6.29603 69.7449 21.795 72.0434 56.2497 68.5684C76.9198 66.4838 93.2491 61.1395 109.388 55.8574C112.007 55.0004 114.621 54.145 117.247 53.3054C136.054 47.2935 155.438 42.1248 181.721 43.1756C207.669 44.2131 225.949 52.7039 243.958 61.0692L244.751 61.4374C263.028 69.9244 281.144 78.1714 307.026 78.5853C332.882 78.9988 350.981 71.0012 369.252 62.9275L369.284 62.913C387.558 54.8379 406.008 46.692 432.359 47.1837C458.573 47.6728 476.965 56.5568 495.142 65.3368L495.423 65.4728C513.706 74.3037 531.812 82.9863 557.681 83.2621C583.544 83.5378 601.645 75.1404 619.929 66.6467L619.978 66.6238C638.233 58.1435 656.677 49.5753 683.011 49.856C709.063 50.1338 727.394 59.1813 745.449 68.0934L746.09 68.4095C764.372 77.4314 782.467 86.2102 808.319 85.9346C833.993 85.6609 852.017 76.1412 870.188 66.5438L870.549 66.3533C888.816 56.7057 907.282 47.0429 933.665 47.1835C960.05 47.3242 978.516 57.3248 996.779 67.2348L996.855 67.2757C1015.12 77.1877 1033.2 86.9957 1059 87.2708C1084.84 87.5463 1102.92 78.1677 1121.21 68.6681L1121.27 68.6373C1139.52 59.1611 1157.97 49.5751 1184.33 49.856C1210.69 50.1371 1230.12 59.3851 1248.89 68.9044C1249.86 69.3964 1250.83 69.8891 1251.79 70.3813C1269.58 79.4297 1287.03 88.3115 1309.72 89.9458C1333.7 91.6732 1354.65 87.0809 1372.41 81.4288C1380.06 78.9938 1387.1 76.3663 1393.55 73.9616C1394.59 73.5739 1395.62 73.1919 1396.62 72.8175C1403.87 70.1287 1410.34 67.8166 1415.97 66.582C1416.4 66.486 1416.85 66.697 1416.97 67.0533C1417.09 67.4096 1416.83 67.7763 1416.39 67.8723C1410.92 69.0735 1404.57 71.3374 1397.3 74.0335C1396.3 74.4064 1395.28 74.7874 1394.24 75.1746C1387.79 77.5789 1380.7 80.2235 1373 82.6734C1355.12 88.3654 1333.9 93.0293 1309.58 91.2769C1286.49 89.6135 1268.72 80.5714 1251 71.5522C1250 71.0472 1249.01 70.5423 1248.02 70.0388C1229.26 60.5236 1210.17 51.4679 1184.31 51.1922C1158.47 50.9167 1140.39 60.2953 1122.1 69.7949L1122.04 69.8257C1103.79 79.3018 1085.33 88.888 1058.98 88.607C1032.69 88.3267 1014.26 78.3279 996.067 68.4535L995.87 68.347C977.579 58.4221 959.491 48.6575 933.654 48.5197C907.817 48.382 889.728 57.8163 871.441 67.4746L870.969 67.7239C852.861 77.2883 834.49 86.9919 808.341 87.2707C781.972 87.5519 763.513 78.5697 745.24 69.5524L744.697 69.2844C726.59 60.3477 708.593 51.4652 682.989 51.1922C657.126 50.9164 639.025 59.3139 620.741 67.8075L620.692 67.8304C602.437 76.3108 583.993 84.879 557.659 84.5982C531.307 84.3173 512.859 75.4478 494.587 66.6222L494.401 66.5327C476.178 57.7304 458.105 49.0006 432.321 48.5196C406.451 48.0369 388.347 56.0094 370.066 64.0876L369.941 64.143C351.709 72.1995 333.283 80.3418 306.994 79.9213C280.656 79.5001 262.217 71.0858 243.939 62.5983L243.226 62.267C225.18 53.8852 207.195 45.5319 181.64 44.5102C155.702 43.4732 136.573 48.5628 117.846 54.5493C115.238 55.3832 112.636 56.235 110.023 57.0903Z" fill="#DEE2E6"/>
<path fill-rule="evenodd" clip-rule="evenodd" d="M110.023 46.4004C93.8854 51.6833 77.3484 57.097 56.4512 59.2046C21.8016 62.6992 -6.65434 60.3727 -28.0918 58.6201C-36.5776 57.9263 -43.9637 57.3224 -50.1989 57.2051C-50.6517 57.1966 -51.0102 56.8907 -50.9998 56.5218C-50.9893 56.1529 -50.6138 55.8607 -50.161 55.8692C-43.7587 55.9897 -36.2644 56.6029 -27.6992 57.3037C-6.29603 59.055 21.795 61.3534 56.2497 57.8785C76.9198 55.7938 93.2491 50.4495 109.388 45.1674C112.007 44.3104 114.621 43.455 117.247 42.6154C136.054 36.6036 155.438 31.4348 181.721 32.4856C207.669 33.5231 225.949 42.0139 243.958 50.3792L244.751 50.7475C263.028 59.2345 281.144 67.4815 307.026 67.8954C332.882 68.3089 350.981 60.3113 369.252 52.2375L369.284 52.223C387.558 44.148 406.008 36.0021 432.359 36.4937C458.573 36.9828 476.965 45.8669 495.142 54.6468L495.423 54.7828C513.706 63.6137 531.812 72.2963 557.681 72.5721C583.544 72.8479 601.645 64.4504 619.929 55.9568L619.978 55.9339C638.233 47.4536 656.677 38.8853 683.011 39.1661C709.063 39.4439 727.394 48.4914 745.449 57.4034L746.09 57.7195C764.372 66.7415 782.467 75.5203 808.319 75.2446C833.993 74.9709 852.017 65.4513 870.188 55.8539L870.549 55.6634C888.816 46.0157 907.282 36.3529 933.665 36.4936C960.05 36.6342 978.516 46.6348 996.779 56.5448L996.855 56.5858C1015.12 66.4978 1033.2 76.3058 1059 76.5809C1084.84 76.8563 1102.92 67.4777 1121.21 57.9782L1121.27 57.9474C1139.52 48.4712 1157.97 38.8851 1184.33 39.1661C1210.69 39.4471 1230.12 48.6952 1248.89 58.2144C1249.86 58.7065 1250.83 59.1992 1251.79 59.6914C1269.58 68.7397 1287.03 77.6215 1309.72 79.2559C1333.7 80.9832 1354.65 76.391 1372.41 70.7388C1380.06 68.3038 1387.1 65.6764 1393.55 63.2717C1394.59 62.8839 1395.62 62.502 1396.62 62.1276C1403.87 59.4387 1410.34 57.1267 1415.97 55.8921C1416.4 55.7961 1416.85 56.0071 1416.97 56.3634C1417.09 56.7197 1416.83 57.0863 1416.39 57.1823C1410.92 58.3836 1404.57 60.6475 1397.3 63.3436C1396.3 63.7165 1395.28 64.0975 1394.24 64.4847C1387.79 66.8889 1380.7 69.5335 1373 71.9834C1355.12 77.6754 1333.9 82.3394 1309.58 80.587C1286.49 78.9236 1268.72 69.8814 1251 60.8622C1250 60.3573 1249.01 59.8524 1248.02 59.3489C1229.26 49.8336 1210.17 40.778 1184.31 40.5022C1158.47 40.2268 1140.39 49.6054 1122.1 59.1049L1122.04 59.1357C1103.79 68.6119 1085.33 78.198 1058.98 77.917C1032.69 77.6367 1014.26 67.638 996.067 57.7635L995.87 57.657C977.579 47.7322 959.491 37.9675 933.654 37.8298C907.817 37.6921 889.728 47.1264 871.441 56.7846L870.969 57.0339C852.861 66.5984 834.49 76.302 808.341 76.5808C781.972 76.8619 763.513 67.8798 745.24 58.8625L744.697 58.5945C726.59 49.6577 708.593 40.7752 682.989 40.5022C657.126 40.2265 639.025 48.624 620.741 57.1176L620.692 57.1405C602.437 65.6208 583.993 74.189 557.659 73.9083C531.307 73.6273 512.859 64.7578 494.587 55.9323L494.401 55.8427C476.178 47.0404 458.105 38.3107 432.321 37.8296C406.451 37.3469 388.347 45.3195 370.066 53.3976L369.941 53.453C351.709 61.5095 333.283 69.6518 306.994 69.2314C280.656 68.8101 262.217 60.3958 243.939 51.9084L243.226 51.5771C225.18 43.1952 207.195 34.842 181.64 33.8203C155.702 32.7832 136.573 37.8729 117.846 43.8594C115.238 44.6932 112.636 45.5451 110.023 46.4004Z" fill="#DEE2E6"/>
<path fill-rule="evenodd" clip-rule="evenodd" d="M110.023 35.7105C93.8854 40.9934 77.3484 46.4071 56.4512 48.5147C21.8016 52.0092 -6.65434 49.6828 -28.0918 47.9301C-36.5776 47.2364 -43.9637 46.6325 -50.1989 46.5152C-50.6517 46.5067 -51.0102 46.2007 -50.9998 45.8318C-50.9893 45.4629 -50.6138 45.1708 -50.161 45.1793C-43.7587 45.2998 -36.2644 45.913 -27.6992 46.6138C-6.29603 48.365 21.795 50.6635 56.2497 47.1886C76.9198 45.1039 93.2491 39.7596 109.388 34.4775C112.007 33.6205 114.621 32.7651 117.247 31.9255C136.054 25.9136 155.438 20.7449 181.721 21.7957C207.669 22.8332 225.949 31.324 243.958 39.6893L244.751 40.0575C263.028 48.5445 281.144 56.7915 307.026 57.2054C332.882 57.6189 350.981 49.6213 369.252 41.5476L369.284 41.5331C387.558 33.458 406.008 25.3121 432.359 25.8038C458.573 26.2929 476.965 35.1769 495.142 43.9569L495.423 44.0929C513.706 52.9238 531.812 61.6064 557.681 61.8822C583.544 62.158 601.645 53.7605 619.929 45.2668L619.978 45.244C638.233 36.7636 656.677 28.1954 683.011 28.4762C709.063 28.7539 727.394 37.8014 745.449 46.7135L746.09 47.0296C764.372 56.0515 782.467 64.8303 808.319 64.5547C833.993 64.281 852.017 54.7613 870.188 45.1639L870.549 44.9734C888.816 35.3258 907.282 25.663 933.665 25.8036C960.05 25.9443 978.516 35.9449 996.779 45.8549L996.855 45.8958C1015.12 55.8078 1033.2 65.6158 1059 65.8909C1084.84 66.1664 1102.92 56.7878 1121.21 47.2882L1121.27 47.2574C1139.52 37.7813 1157.97 28.1952 1184.33 28.4762C1210.69 28.7572 1230.12 38.0053 1248.89 47.5245C1249.86 48.0166 1250.83 48.5093 1251.79 49.0015C1269.58 58.0498 1287.03 66.9316 1309.72 68.566C1333.7 70.2933 1354.65 65.701 1372.41 60.0489C1380.06 57.6139 1387.1 54.9865 1393.55 52.5817C1394.59 52.194 1395.62 51.8121 1396.62 51.4377C1403.87 48.7488 1410.34 46.4367 1415.97 45.2021C1416.4 45.1062 1416.85 45.3172 1416.97 45.6734C1417.09 46.0297 1416.83 46.3964 1416.39 46.4924C1410.92 47.6937 1404.57 49.9575 1397.3 52.6536C1396.3 53.0265 1395.28 53.4075 1394.24 53.7947C1387.79 56.199 1380.7 58.8436 1373 61.2935C1355.12 66.9855 1333.9 71.6495 1309.58 69.897C1286.49 68.2336 1268.72 59.1915 1251 50.1723C1250 49.6673 1249.01 49.1624 1248.02 48.6589C1229.26 39.1437 1210.17 30.088 1184.31 29.8123C1158.47 29.5368 1140.39 38.9154 1122.1 48.415L1122.04 48.4458C1103.79 57.922 1085.33 67.5081 1058.98 67.2271C1032.69 66.9468 1014.26 56.948 996.067 47.0736L995.87 46.9671C977.579 37.0422 959.491 27.2776 933.654 27.1398C907.817 27.0021 889.728 36.4364 871.441 46.0947L870.969 46.344C852.861 55.9084 834.49 65.612 808.341 65.8908C781.972 66.172 763.513 57.1899 745.24 48.1725L744.697 47.9045C726.59 38.9678 708.593 30.0853 682.989 29.8123C657.126 29.5366 639.025 37.934 620.741 46.4277L620.692 46.4505C602.437 54.9309 583.993 63.4991 557.659 63.2183C531.307 62.9374 512.859 54.0679 494.587 45.2423L494.401 45.1528C476.178 36.3505 458.105 27.6208 432.321 27.1397C406.451 26.657 388.347 34.6295 370.066 42.7077L369.941 42.7631C351.709 50.8196 333.283 58.9619 306.994 58.5414C280.656 58.1202 262.217 49.7059 243.939 41.2185L243.226 40.8872C225.18 32.5053 207.195 24.1521 181.64 23.1303C155.702 22.0933 136.573 27.183 117.846 33.1694C115.238 34.0033 112.636 34.8552 110.023 35.7105Z" fill="#DEE2E6"/>
<path fill-rule="evenodd" clip-rule="evenodd" d="M110.023 25.0205C93.8854 30.3034 77.3484 35.7172 56.4512 37.8247C21.8016 41.3193 -6.65434 38.9929 -28.0918 37.2402C-36.5776 36.5464 -43.9637 35.9426 -50.1989 35.8253C-50.6517 35.8167 -51.0102 35.5108 -50.9998 35.1419C-50.9893 34.773 -50.6138 34.4808 -50.161 34.4894C-43.7587 34.6098 -36.2644 35.223 -27.6992 35.9238C-6.29603 37.6751 21.795 39.9735 56.2497 36.4986C76.9198 34.4139 93.2491 29.0697 109.388 23.7876C112.007 22.9305 114.621 22.0751 117.247 21.2356C136.054 15.2237 155.438 10.055 181.721 11.1058C207.669 12.1432 225.949 20.6341 243.958 28.9993L244.751 29.3676C263.028 37.8546 281.144 46.1016 307.026 46.5155C332.882 46.929 350.981 38.9314 369.252 30.8576L369.284 30.8432C387.558 22.7681 406.008 14.6222 432.359 15.1139C458.573 15.603 476.965 24.487 495.142 33.2669L495.423 33.403C513.706 42.2339 531.812 50.9165 557.681 51.1923C583.544 51.468 601.645 43.0705 619.929 34.5769L619.978 34.554C638.233 26.0737 656.677 17.5055 683.011 17.7862C709.063 18.064 727.394 27.1115 745.449 36.0236L746.09 36.3397C764.372 45.3616 782.467 54.1404 808.319 53.8648C833.993 53.591 852.017 44.0714 870.188 34.474L870.549 34.2835C888.816 24.6359 907.282 14.9731 933.665 15.1137C960.05 15.2544 978.516 25.2549 996.779 35.165L996.855 35.2059C1015.12 45.1179 1033.2 54.9259 1059 55.201C1084.84 55.4765 1102.92 46.0979 1121.21 36.5983L1121.27 36.5675C1139.52 27.0913 1157.97 17.5052 1184.33 17.7862C1210.69 18.0672 1230.12 27.3153 1248.89 36.8346C1249.86 37.3266 1250.83 37.8193 1251.79 38.3115C1269.58 47.3598 1287.03 56.2417 1309.72 57.876C1333.7 59.6034 1354.65 55.0111 1372.41 49.3589C1380.06 46.924 1387.1 44.2965 1393.55 41.8918C1394.59 41.5041 1395.62 41.1221 1396.62 40.7477C1403.87 38.0588 1410.34 35.7468 1415.97 34.5122C1416.4 34.4162 1416.85 34.6272 1416.97 34.9835C1417.09 35.3398 1416.83 35.7064 1416.39 35.8024C1410.92 37.0037 1404.57 39.2676 1397.3 41.9637C1396.3 42.3366 1395.28 42.7176 1394.24 43.1048C1387.79 45.509 1380.7 48.1537 1373 50.6036C1355.12 56.2956 1333.9 60.9595 1309.58 59.2071C1286.49 57.5437 1268.72 48.5016 1251 39.4823C1250 38.9774 1249.01 38.4725 1248.02 37.969C1229.26 28.4538 1210.17 19.3981 1184.31 19.1224C1158.47 18.8469 1140.39 28.2255 1122.1 37.7251L1122.04 37.7558C1103.79 47.232 1085.33 56.8181 1058.98 56.5372C1032.69 56.2569 1014.26 46.2581 996.067 36.3837L995.87 36.2771C977.579 26.3523 959.491 16.5877 933.654 16.4499C907.817 16.3122 889.728 25.7465 871.441 35.4048L870.969 35.6541C852.861 45.2185 834.49 54.9221 808.341 55.2009C781.972 55.4821 763.513 46.4999 745.24 37.4826L744.697 37.2146C726.59 28.2779 708.593 19.3953 682.989 19.1224C657.126 18.8466 639.025 27.2441 620.741 35.7377L620.692 35.7606C602.437 44.2409 583.993 52.8092 557.659 52.5284C531.307 52.2474 512.859 43.378 494.587 34.5524L494.401 34.4628C476.178 25.6606 458.105 16.9308 432.321 16.4498C406.451 15.9671 388.347 23.9396 370.066 32.0178L369.941 32.0732C351.709 40.1297 333.283 48.2719 306.994 47.8515C280.656 47.4303 262.217 39.016 243.939 30.5285L243.226 30.1972C225.18 21.8154 207.195 13.4621 181.64 12.4404C155.702 11.4033 136.573 16.493 117.846 22.4795C115.238 23.3134 112.636 24.1652 110.023 25.0205Z" fill="#DEE2E6"/>
<path fill-rule="evenodd" clip-rule="evenodd" d="M110.023 14.3306C93.8854 19.6135 77.3484 25.0272 56.4512 27.1348C21.8016 30.6294 -6.65434 28.3029 -28.0918 26.5503C-36.5776 25.8565 -43.9637 25.2526 -50.1989 25.1353C-50.6517 25.1268 -51.0102 24.8209 -50.9998 24.452C-50.9893 24.0831 -50.6138 23.7909 -50.161 23.7994C-43.7587 23.9199 -36.2644 24.5331 -27.6992 25.2339C-6.29603 26.9852 21.795 29.2836 56.2497 25.8087C76.9198 23.724 93.2491 18.3797 109.388 13.0976C112.007 12.2406 114.621 11.3852 117.247 10.5456C136.054 4.53377 155.438 -0.634975 181.721 0.415833C207.669 1.4533 225.949 9.94413 243.958 18.3094L244.751 18.6777C263.028 27.1646 281.144 35.4116 307.026 35.8256C332.882 36.2391 350.981 28.2415 369.252 20.1677L369.284 20.1532C387.558 12.0781 406.008 3.93227 432.359 4.42392C458.573 4.91303 476.965 13.7971 495.142 22.577L495.423 22.713C513.706 31.5439 531.812 40.2266 557.681 40.5023C583.544 40.7781 601.645 32.3806 619.929 23.887L619.978 23.8641C638.233 15.3838 656.677 6.81553 683.011 7.0963C709.063 7.37407 727.394 16.4215 745.449 25.3336L746.09 25.6497C764.372 34.6717 782.467 43.4505 808.319 43.1748C833.993 42.9011 852.017 33.3815 870.188 23.7841L870.549 23.5936C888.816 13.9459 907.282 4.28312 933.665 4.42377C960.05 4.56442 978.516 14.565 996.779 24.475L996.855 24.516C1015.12 34.428 1033.2 44.236 1059 44.5111C1084.84 44.7865 1102.92 35.4079 1121.21 25.9084L1121.27 25.8776C1139.52 16.4014 1157.97 6.8153 1184.33 7.0963C1210.69 7.37732 1230.12 16.6254 1248.89 26.1446C1249.86 26.6367 1250.83 27.1294 1251.79 27.6216C1269.58 36.6699 1287.03 45.5517 1309.72 47.1861C1333.7 48.9135 1354.65 44.3212 1372.41 38.669C1380.06 36.234 1387.1 33.6066 1393.55 31.2018C1394.59 30.8141 1395.62 30.4322 1396.62 30.0578C1403.87 27.3689 1410.34 25.0568 1415.97 23.8223C1416.4 23.7263 1416.85 23.9373 1416.97 24.2936C1417.09 24.6499 1416.83 25.0165 1416.39 25.1125C1410.92 26.3138 1404.57 28.5776 1397.3 31.2738C1396.3 31.6467 1395.28 32.0276 1394.24 32.4149C1387.79 34.8191 1380.7 37.4637 1373 39.9136C1355.12 45.6056 1333.9 50.2696 1309.58 48.5171C1286.49 46.8537 1268.72 37.8116 1251 28.7924C1250 28.2875 1249.01 27.7826 1248.02 27.2791C1229.26 17.7638 1210.17 8.70816 1184.31 8.43242C1158.47 8.15695 1140.39 17.5356 1122.1 27.0351L1122.04 27.0659C1103.79 36.5421 1085.33 46.1282 1058.98 45.8472C1032.69 45.5669 1014.26 35.5682 996.067 25.6937L995.87 25.5872C977.579 15.6624 959.491 5.89771 933.654 5.75998C907.817 5.62224 889.728 15.0566 871.441 24.7148L870.969 24.9641C852.861 34.5285 834.49 44.2322 808.341 44.511C781.972 44.7921 763.513 35.81 745.24 26.7927L744.697 26.5247C726.59 17.5879 708.593 8.7054 682.989 8.43242C657.126 8.15667 639.025 16.5542 620.741 25.0478L620.692 25.0707C602.437 33.551 583.993 42.1192 557.659 41.8385C531.307 41.5575 512.859 32.688 494.587 23.8625L494.401 23.7729C476.178 14.9706 458.105 6.24089 432.321 5.75981C406.451 5.27712 388.347 13.2497 370.066 21.3278L369.941 21.3832C351.709 29.4397 333.283 37.582 306.994 37.1616C280.656 36.7403 262.217 28.3261 243.939 19.8386L243.226 19.5073C225.18 11.1254 207.195 2.77218 181.64 1.75046C155.702 0.713387 136.573 5.80307 117.846 11.7896C115.238 12.6234 112.636 13.4753 110.023 14.3306Z" fill="#DEE2E6"/>
</svg>
