<svg xmlns="http://www.w3.org/2000/svg" width="1366" height="252" fill="none"><path fill="#DEE2E6" fill-rule="evenodd" d="M110.023 217.439c-16.138 5.283-32.675 10.697-53.572 12.805-34.65 3.494-63.105 1.168-84.543-.585-8.486-.694-15.872-1.298-22.107-1.415-.453-.008-.811-.314-.8-.683.01-.369.385-.661.838-.653 6.402.121 13.897.734 22.462 1.435 21.403 1.751 49.494 4.049 83.949.574 20.67-2.084 37-7.428 53.138-12.711 2.619-.857 5.233-1.712 7.859-2.552 18.807-6.011 38.191-11.18 64.474-10.129 25.948 1.037 44.228 9.528 62.237 17.893l.793.368c18.277 8.487 36.393 16.734 62.275 17.148 25.856.414 43.955-7.584 62.226-15.658l.032-.014c18.274-8.075 36.724-16.221 63.075-15.729 26.214.489 44.606 9.373 62.783 18.153l.281.136c18.283 8.831 36.389 17.513 62.258 17.789 25.863.276 43.964-8.122 62.248-16.615l.049-.023c18.255-8.48 36.699-17.049 63.033-16.768 26.052.278 44.383 9.325 62.438 18.237l.641.317c18.282 9.021 36.377 17.8 62.229 17.525 25.674-.274 43.698-9.794 61.869-19.391l.361-.191c18.267-9.647 36.733-19.31 63.116-19.169 26.385.14 44.851 10.141 63.114 20.051l.076.041c18.265 9.912 36.345 19.72 62.145 19.995 25.84.275 43.92-9.103 62.21-18.603l.06-.031c18.25-9.476 36.7-19.062 63.06-18.781s45.79 9.529 64.56 19.048c.97.493 1.94.985 2.9 1.477 17.79 9.049 35.24 17.931 57.93 19.565 23.98 1.727 44.93-2.865 62.69-8.517 7.65-2.435 14.69-5.063 21.14-7.467 1.04-.388 2.07-.77 3.07-1.144 7.25-2.689 13.72-5.001 19.35-6.236.43-.096.88.115 1 .471.12.357-.14.723-.58.819-5.47 1.202-11.82 3.465-19.09 6.162l-3.06 1.141c-6.45 2.404-13.54 5.048-21.24 7.498-17.88 5.692-39.1 10.356-63.42 8.604-23.09-1.663-40.86-10.706-58.58-19.725-1-.505-1.99-1.01-2.98-1.513-18.76-9.515-37.85-18.571-63.71-18.847-25.84-.275-43.92 9.103-62.21 18.603l-.06.031c-18.25 9.476-36.71 19.062-63.06 18.781-26.29-.28-44.72-10.279-62.913-20.154l-.197-.106c-18.291-9.925-36.379-19.689-62.216-19.827s-43.926 9.296-62.213 18.955l-.472.249c-18.108 9.564-36.479 19.268-62.628 19.547-26.369.281-44.828-8.701-63.101-17.719l-.543-.268c-18.107-8.936-36.104-17.819-61.708-18.092-25.863-.276-43.964 8.122-62.248 16.616l-.049.022c-18.255 8.481-36.699 17.049-63.033 16.768-26.352-.281-44.8-9.15-63.072-17.976l-.186-.089c-18.223-8.803-36.296-17.532-62.08-18.013-25.87-.483-43.974 7.49-62.255 15.568l-.125.055c-18.232 8.057-36.658 16.199-62.947 15.778-26.338-.421-44.777-8.835-63.055-17.323l-.713-.331c-18.046-8.382-36.031-16.735-61.586-17.757-25.938-1.037-45.067 4.053-63.794 10.039-2.608.834-5.21 1.686-7.823 2.541" clip-rule="evenodd"/><path fill="#DEE2E6" fill-rule="evenodd" d="M110.023 206.749c-16.138 5.283-32.675 10.697-53.572 12.805-34.65 3.494-63.105 1.168-84.543-.585-8.486-.694-15.872-1.297-22.107-1.415-.453-.008-.811-.314-.8-.683.01-.369.385-.661.838-.653 6.402.121 13.897.734 22.462 1.435 21.403 1.751 49.494 4.049 83.949.575 20.67-2.085 37-7.429 53.138-12.711a1125 1125 0 0 1 7.859-2.552c18.807-6.012 38.191-11.181 64.474-10.13 25.948 1.037 44.228 9.528 62.237 17.893l.793.369c18.277 8.487 36.393 16.734 62.275 17.147 25.856.414 43.955-7.584 62.226-15.657l.032-.015c18.274-8.075 36.724-16.221 63.075-15.729 26.214.489 44.606 9.373 62.783 18.153l.281.136c18.283 8.831 36.389 17.513 62.258 17.789 25.863.276 43.964-8.122 62.248-16.615l.049-.023c18.255-8.48 36.699-17.049 63.033-16.768 26.052.278 44.383 9.325 62.438 18.237l.641.317c18.282 9.022 36.377 17.8 62.229 17.525 25.674-.274 43.698-9.794 61.869-19.391l.361-.191c18.267-9.647 36.733-19.31 63.116-19.169 26.385.14 44.851 10.141 63.114 20.051l.076.041c18.265 9.912 36.345 19.72 62.145 19.995 25.84.275 43.92-9.103 62.21-18.603l.06-.031c18.25-9.476 36.7-19.062 63.06-18.781s45.79 9.529 64.56 19.049c.97.492 1.94.984 2.9 1.476 17.79 9.049 35.24 17.931 57.93 19.565 23.98 1.727 44.93-2.865 62.69-8.517 7.65-2.435 14.69-5.063 21.14-7.467 1.04-.388 2.07-.77 3.07-1.144 7.25-2.689 13.72-5.001 19.35-6.236.43-.096.88.115 1 .471.12.357-.14.723-.58.819-5.47 1.202-11.82 3.466-19.09 6.162l-3.06 1.141c-6.45 2.404-13.54 5.049-21.24 7.498-17.88 5.692-39.1 10.356-63.42 8.604-23.09-1.663-40.86-10.706-58.58-19.725-1-.505-1.99-1.01-2.98-1.513-18.76-9.515-37.85-18.571-63.71-18.847-25.84-.275-43.92 9.103-62.21 18.603l-.06.031c-18.25 9.476-36.71 19.062-63.06 18.781-26.29-.28-44.72-10.279-62.913-20.153l-.197-.107c-18.291-9.925-36.379-19.689-62.216-19.827s-43.926 9.296-62.213 18.955l-.472.249c-18.108 9.564-36.479 19.268-62.628 19.547-26.369.281-44.828-8.701-63.101-17.718l-.543-.268c-18.107-8.937-36.104-17.82-61.708-18.093-25.863-.275-43.964 8.122-62.248 16.616l-.049.023c-18.255 8.48-36.699 17.048-63.033 16.767-26.352-.281-44.8-9.15-63.072-17.976l-.186-.089c-18.223-8.802-36.296-17.532-62.08-18.013-25.87-.483-43.974 7.49-62.255 15.568l-.125.055c-18.232 8.057-36.658 16.199-62.947 15.778-26.338-.421-44.777-8.835-63.055-17.323l-.713-.331c-18.046-8.382-36.031-16.735-61.586-17.757-25.938-1.037-45.067 4.053-63.794 10.039-2.608.834-5.21 1.686-7.823 2.541" clip-rule="evenodd"/><path fill="#DEE2E6" fill-rule="evenodd" d="M110.023 196.06c-16.138 5.282-32.675 10.696-53.572 12.804-34.65 3.494-63.105 1.168-84.543-.585-8.486-.694-15.872-1.297-22.107-1.415-.453-.008-.811-.314-.8-.683.01-.369.385-.661.838-.653 6.402.121 13.897.734 22.462 1.435 21.403 1.751 49.494 4.05 83.949.575 20.67-2.085 37-7.429 53.138-12.711 2.619-.857 5.233-1.713 7.859-2.552 18.807-6.012 38.191-11.181 64.474-10.13 25.948 1.037 44.228 9.528 62.237 17.893l.793.369c18.277 8.487 36.393 16.734 62.275 17.148 25.856.413 43.955-7.585 62.226-15.658l.032-.015c18.274-8.075 36.724-16.221 63.075-15.729 26.214.489 44.606 9.373 62.783 18.153l.281.136c18.283 8.831 36.389 17.513 62.258 17.789 25.863.276 43.964-8.121 62.248-16.615l.049-.023c18.255-8.48 36.699-17.049 63.033-16.768 26.052.278 44.383 9.325 62.438 18.238l.641.316c18.282 9.022 36.377 17.8 62.229 17.525 25.674-.274 43.698-9.794 61.869-19.391l.361-.19c18.267-9.648 36.733-19.311 63.116-19.17 26.385.14 44.851 10.141 63.114 20.051l.076.041c18.265 9.912 36.345 19.72 62.145 19.995 25.84.276 43.92-9.103 62.21-18.603l.06-.03c18.25-9.477 36.7-19.063 63.06-18.782s45.79 9.529 64.56 19.049c.97.492 1.94.984 2.9 1.477 17.79 9.048 35.24 17.93 57.93 19.564 23.98 1.727 44.93-2.865 62.69-8.517 7.65-2.435 14.69-5.062 21.14-7.467 1.04-.388 2.07-.77 3.07-1.144 7.25-2.689 13.72-5.001 19.35-6.236.43-.096.88.115 1 .472.12.356-.14.722-.58.818-5.47 1.202-11.82 3.466-19.09 6.162l-3.06 1.141c-6.45 2.404-13.54 5.049-21.24 7.499-17.88 5.692-39.1 10.356-63.42 8.603-23.09-1.663-40.86-10.705-58.58-19.725-1-.505-1.99-1.01-2.98-1.513-18.76-9.515-37.85-18.571-63.71-18.847-25.84-.275-43.92 9.103-62.21 18.603l-.06.031c-18.25 9.476-36.71 19.062-63.06 18.781-26.29-.28-44.72-10.279-62.913-20.153l-.197-.107c-18.291-9.925-36.379-19.689-62.216-19.827s-43.926 9.297-62.213 18.955l-.472.249c-18.108 9.565-36.479 19.268-62.628 19.547-26.369.281-44.828-8.701-63.101-17.718l-.543-.268c-18.107-8.937-36.104-17.82-61.708-18.093-25.863-.275-43.964 8.122-62.248 16.616l-.049.023c-18.255 8.48-36.699 17.048-63.033 16.767-26.352-.281-44.8-9.15-63.072-17.976l-.186-.089c-18.223-8.802-36.296-17.532-62.08-18.013-25.87-.483-43.974 7.49-62.255 15.568l-.125.055c-18.232 8.057-36.658 16.199-62.947 15.779-26.338-.422-44.777-8.836-63.055-17.323l-.713-.332c-18.046-8.382-36.031-16.735-61.586-17.757-25.938-1.037-45.067 4.053-63.794 10.04-2.608.833-5.21 1.685-7.823 2.541" clip-rule="evenodd"/><path fill="#DEE2E6" fill-rule="evenodd" d="M110.023 185.37c-16.138 5.283-32.675 10.696-53.572 12.804-34.65 3.494-63.105 1.168-84.543-.585-8.486-.693-15.872-1.297-22.107-1.415-.453-.008-.811-.314-.8-.683.01-.369.385-.661.838-.653 6.402.121 13.897.734 22.462 1.435 21.403 1.751 49.494 4.05 83.949.575 20.67-2.085 37-7.429 53.138-12.711 2.619-.857 5.233-1.713 7.859-2.552 18.807-6.012 38.191-11.181 64.474-10.13 25.948 1.037 44.228 9.528 62.237 17.893l.793.369c18.277 8.487 36.393 16.734 62.275 17.148 25.856.413 43.955-7.585 62.226-15.658l.032-.015c18.274-8.075 36.724-16.221 63.075-15.729 26.214.489 44.606 9.373 62.783 18.153l.281.136c18.283 8.831 36.389 17.514 62.258 17.789 25.863.276 43.964-8.121 62.248-16.615l.049-.023c18.255-8.48 36.699-17.048 63.033-16.768 26.052.278 44.383 9.326 62.438 18.238l.641.316c18.282 9.022 36.377 17.8 62.229 17.525 25.674-.274 43.698-9.794 61.869-19.391l.361-.19c18.267-9.648 36.733-19.311 63.116-19.17 26.385.14 44.851 10.141 63.114 20.051l.076.041c18.265 9.912 36.345 19.72 62.145 19.995 25.84.276 43.92-9.103 62.21-18.603l.06-.03c18.25-9.477 36.7-19.063 63.06-18.782s45.79 9.529 64.56 19.049c.97.492 1.94.984 2.9 1.477 17.79 9.048 35.24 17.93 57.93 19.564 23.98 1.727 44.93-2.865 62.69-8.517 7.65-2.435 14.69-5.062 21.14-7.467 1.04-.388 2.07-.77 3.07-1.144 7.25-2.689 13.72-5.001 19.35-6.236.43-.096.88.115 1 .472.12.356-.14.723-.58.819-5.47 1.201-11.82 3.465-19.09 6.161l-3.06 1.141c-6.45 2.404-13.54 5.049-21.24 7.499-17.88 5.692-39.1 10.356-63.42 8.603-23.09-1.663-40.86-10.705-58.58-19.725-1-.505-1.99-1.009-2.98-1.513-18.76-9.515-37.85-18.571-63.71-18.847-25.84-.275-43.92 9.104-62.21 18.603l-.06.031c-18.25 9.476-36.71 19.062-63.06 18.781-26.29-.28-44.72-10.279-62.913-20.153l-.197-.107c-18.291-9.925-36.379-19.689-62.216-19.827s-43.926 9.297-62.213 18.955l-.472.249c-18.108 9.565-36.479 19.268-62.628 19.547-26.369.281-44.828-8.701-63.101-17.718l-.543-.268c-18.107-8.937-36.104-17.82-61.708-18.093-25.863-.275-43.964 8.122-62.248 16.616l-.049.023c-18.255 8.48-36.699 17.048-63.033 16.767-26.352-.281-44.8-9.15-63.072-17.976l-.186-.089c-18.223-8.802-36.296-17.532-62.08-18.013-25.87-.483-43.974 7.49-62.255 15.568l-.125.055c-18.232 8.057-36.658 16.199-62.947 15.779-26.338-.422-44.777-8.836-63.055-17.323l-.713-.332c-18.046-8.382-36.031-16.735-61.586-17.757-25.938-1.037-45.067 4.053-63.794 10.04-2.608.833-5.21 1.685-7.823 2.541" clip-rule="evenodd"/><path fill="#DEE2E6" fill-rule="evenodd" d="M110.023 174.68c-16.138 5.283-32.675 10.696-53.572 12.804-34.65 3.494-63.105 1.168-84.543-.585-8.486-.693-15.872-1.297-22.107-1.415-.453-.008-.811-.314-.8-.683.01-.369.385-.661.838-.652 6.402.12 13.897.733 22.462 1.434 21.403 1.751 49.494 4.05 83.949.575 20.67-2.085 37-7.429 53.138-12.711 2.619-.857 5.233-1.713 7.859-2.552 18.807-6.012 38.191-11.181 64.474-10.13 25.948 1.037 44.228 9.528 62.237 17.893l.793.369c18.277 8.487 36.393 16.734 62.275 17.148 25.856.413 43.955-7.585 62.226-15.658l.032-.015c18.274-8.075 36.724-16.221 63.075-15.729 26.214.489 44.606 9.373 62.783 18.153l.281.136c18.283 8.831 36.389 17.514 62.258 17.789 25.863.276 43.964-8.121 62.248-16.615l.049-.023c18.255-8.48 36.699-17.048 63.033-16.768 26.052.278 44.383 9.326 62.438 18.238l.641.316c18.282 9.022 36.377 17.801 62.229 17.525 25.674-.274 43.698-9.793 61.869-19.391l.361-.19c18.267-9.648 36.733-19.311 63.116-19.17 26.385.14 44.851 10.141 63.114 20.051l.076.041c18.265 9.912 36.345 19.72 62.145 19.995 25.84.276 43.92-9.103 62.21-18.603l.06-.03c18.25-9.477 36.7-19.063 63.06-18.782s45.79 9.529 64.56 19.049c.97.492 1.94.984 2.9 1.477 17.79 9.048 35.24 17.93 57.93 19.564 23.98 1.728 44.93-2.865 62.69-8.517 7.65-2.435 14.69-5.062 21.14-7.467 1.04-.388 2.07-.77 3.07-1.144 7.25-2.689 13.72-5.001 19.35-6.236.43-.096.88.115 1 .472.12.356-.14.723-.58.819-5.47 1.201-11.82 3.465-19.09 6.161l-3.06 1.141c-6.45 2.404-13.54 5.049-21.24 7.499-17.88 5.692-39.1 10.356-63.42 8.603-23.09-1.663-40.86-10.705-58.58-19.725-1-.504-1.99-1.009-2.98-1.513-18.76-9.515-37.85-18.571-63.71-18.847-25.84-.275-43.92 9.104-62.21 18.603l-.06.031c-18.25 9.476-36.71 19.062-63.06 18.781-26.29-.28-44.72-10.279-62.913-20.153l-.197-.107c-18.291-9.925-36.379-19.689-62.216-19.827s-43.926 9.297-62.213 18.955l-.472.249c-18.108 9.565-36.479 19.268-62.628 19.547-26.369.281-44.828-8.701-63.101-17.718l-.543-.268c-18.107-8.937-36.104-17.82-61.708-18.093-25.863-.275-43.964 8.122-62.248 16.616l-.049.023c-18.255 8.48-36.699 17.048-63.033 16.768-26.352-.281-44.8-9.151-63.072-17.976l-.186-.09c-18.223-8.802-36.296-17.532-62.08-18.013-25.87-.483-43.974 7.49-62.255 15.568l-.125.055c-18.232 8.057-36.658 16.199-62.947 15.779-26.338-.422-44.777-8.836-63.055-17.323l-.713-.332c-18.046-8.382-36.031-16.735-61.586-17.756-25.938-1.038-45.067 4.052-63.794 10.039-2.608.833-5.21 1.685-7.823 2.541" clip-rule="evenodd"/><path fill="#DEE2E6" fill-rule="evenodd" d="M110.023 163.99c-16.138 5.283-32.675 10.696-53.572 12.804-34.65 3.495-63.105 1.168-84.543-.585-8.486-.693-15.872-1.297-22.107-1.415-.453-.008-.811-.314-.8-.683.01-.369.385-.661.838-.652 6.402.12 13.897.733 22.462 1.434 21.403 1.751 49.494 4.05 83.949.575 20.67-2.085 37-7.429 53.138-12.711 2.619-.857 5.233-1.713 7.859-2.552 18.807-6.012 38.191-11.181 64.474-10.13 25.948 1.037 44.228 9.528 62.237 17.894l.793.368c18.277 8.487 36.393 16.734 62.275 17.148 25.856.413 43.955-7.584 62.226-15.658l.032-.015c18.274-8.075 36.724-16.221 63.075-15.729 26.214.489 44.606 9.373 62.783 18.153l.281.136c18.283 8.831 36.389 17.514 62.258 17.789 25.863.276 43.964-8.121 62.248-16.615l.049-.023c18.255-8.48 36.699-17.048 63.033-16.768 26.052.278 44.383 9.326 62.438 18.238l.641.316c18.282 9.022 36.377 17.801 62.229 17.525 25.674-.274 43.698-9.793 61.869-19.391l.361-.19c18.267-9.648 36.733-19.311 63.116-19.17 26.385.141 44.851 10.141 63.114 20.051l.076.041c18.265 9.912 36.345 19.72 62.145 19.995 25.84.276 43.92-9.103 62.21-18.602l.06-.031c18.25-9.476 36.7-19.063 63.06-18.782s45.79 9.53 64.56 19.049c.97.492 1.94.985 2.9 1.477 17.79 9.048 35.24 17.93 57.93 19.564 23.98 1.728 44.93-2.865 62.69-8.517 7.65-2.435 14.69-5.062 21.14-7.467 1.04-.388 2.07-.77 3.07-1.144 7.25-2.689 13.72-5.001 19.35-6.236.43-.096.88.115 1 .472.12.356-.14.723-.58.819-5.47 1.201-11.82 3.465-19.09 6.161l-3.06 1.141c-6.45 2.404-13.54 5.049-21.24 7.499-17.88 5.692-39.1 10.356-63.42 8.603-23.09-1.663-40.86-10.705-58.58-19.724-1-.505-1.99-1.01-2.98-1.514-18.76-9.515-37.85-18.571-63.71-18.846-25.84-.276-43.92 9.103-62.21 18.602l-.06.031c-18.25 9.476-36.71 19.062-63.06 18.781-26.29-.28-44.72-10.279-62.913-20.153l-.197-.107c-18.291-9.924-36.379-19.689-62.216-19.827s-43.926 9.297-62.213 18.955l-.472.249c-18.108 9.565-36.479 19.268-62.628 19.547-26.369.281-44.828-8.701-63.101-17.718l-.543-.268c-18.107-8.937-36.104-17.819-61.708-18.092-25.863-.276-43.964 8.121-62.248 16.615l-.049.023c-18.255 8.48-36.699 17.048-63.033 16.768-26.352-.281-44.8-9.151-63.072-17.976l-.186-.09c-18.223-8.802-36.296-17.532-62.08-18.013-25.87-.483-43.974 7.49-62.255 15.568l-.125.055c-18.232 8.057-36.658 16.199-62.947 15.779-26.338-.422-44.777-8.836-63.055-17.323l-.713-.332c-18.046-8.381-36.031-16.735-61.586-17.756-25.938-1.037-45.067 4.052-63.794 10.039-2.608.834-5.21 1.685-7.823 2.541" clip-rule="evenodd"/><path fill="#DEE2E6" fill-rule="evenodd" d="M110.023 153.3c-16.138 5.283-32.675 10.696-53.572 12.804-34.65 3.495-63.105 1.168-84.543-.585-8.486-.693-15.872-1.297-22.107-1.414-.453-.009-.811-.315-.8-.684.01-.369.385-.661.838-.652 6.402.12 13.897.733 22.462 1.434 21.403 1.751 49.494 4.05 83.949.575 20.67-2.085 37-7.429 53.138-12.711 2.619-.857 5.233-1.713 7.859-2.552 18.807-6.012 38.191-11.181 64.474-10.13 25.948 1.037 44.228 9.528 62.237 17.894l.793.368c18.277 8.487 36.393 16.734 62.275 17.148 25.856.413 43.955-7.584 62.226-15.658l.032-.015c18.274-8.075 36.724-16.221 63.075-15.729 26.214.489 44.606 9.373 62.783 18.153l.281.136c18.283 8.831 36.389 17.514 62.258 17.79 25.863.275 43.964-8.122 62.248-16.616l.049-.023c18.255-8.48 36.699-17.048 63.033-16.768 26.052.278 44.383 9.326 62.438 18.238l.641.316c18.282 9.022 36.377 17.801 62.229 17.525 25.674-.274 43.698-9.793 61.869-19.391l.361-.19c18.267-9.648 36.733-19.311 63.116-19.17 26.385.141 44.851 10.141 63.114 20.051l.076.041c18.265 9.912 36.345 19.72 62.145 19.995 25.84.276 43.92-9.103 62.21-18.602l.06-.031c18.25-9.476 36.7-19.063 63.06-18.782s45.79 9.53 64.56 19.049c.97.492 1.94.985 2.9 1.477 17.79 9.048 35.24 17.93 57.93 19.564 23.98 1.728 44.93-2.865 62.69-8.517 7.65-2.435 14.69-5.062 21.14-7.467 1.04-.388 2.07-.77 3.07-1.144 7.25-2.689 13.72-5.001 19.35-6.236.43-.096.88.115 1 .472.12.356-.14.723-.58.819-5.47 1.201-11.82 3.465-19.09 6.161l-3.06 1.141c-6.45 2.404-13.54 5.049-21.24 7.499-17.88 5.692-39.1 10.356-63.42 8.603-23.09-1.663-40.86-10.705-58.58-19.724-1-.505-1.99-1.01-2.98-1.514-18.76-9.515-37.85-18.571-63.71-18.846-25.84-.276-43.92 9.103-62.21 18.602l-.06.031c-18.25 9.476-36.71 19.062-63.06 18.781-26.29-.28-44.72-10.279-62.913-20.153l-.197-.107c-18.291-9.924-36.379-19.689-62.216-19.827s-43.926 9.297-62.213 18.955l-.472.249c-18.108 9.565-36.479 19.268-62.628 19.547-26.369.281-44.828-8.701-63.101-17.718l-.543-.268c-18.107-8.937-36.104-17.819-61.708-18.092-25.863-.276-43.964 8.121-62.248 16.615l-.049.023c-18.255 8.48-36.699 17.048-63.033 16.768-26.352-.281-44.8-9.151-63.072-17.976l-.186-.09c-18.223-8.802-36.296-17.532-62.08-18.013-25.87-.483-43.974 7.49-62.255 15.568l-.125.055c-18.232 8.057-36.658 16.199-62.947 15.779-26.338-.421-44.777-8.836-63.055-17.323l-.713-.332c-18.046-8.381-36.031-16.735-61.586-17.756-25.938-1.037-45.067 4.052-63.794 10.039-2.608.834-5.21 1.685-7.823 2.541" clip-rule="evenodd"/><path fill="#DEE2E6" fill-rule="evenodd" d="M110.023 142.61c-16.138 5.283-32.675 10.696-53.572 12.804-34.65 3.495-63.105 1.168-84.543-.584-8.486-.694-15.872-1.298-22.107-1.415-.453-.009-.811-.315-.8-.684.01-.369.385-.661.838-.652 6.402.12 13.897.733 22.462 1.434 21.403 1.751 49.494 4.05 83.949.575 20.67-2.085 37-7.429 53.138-12.711 2.619-.857 5.233-1.713 7.859-2.552 18.807-6.012 38.191-11.181 64.474-10.13 25.948 1.038 44.228 9.528 62.237 17.894l.793.368c18.277 8.487 36.393 16.734 62.275 17.148 25.856.413 43.955-7.584 62.226-15.658l.032-.015c18.274-8.075 36.724-16.22 63.075-15.729 26.214.489 44.606 9.373 62.783 18.153l.281.136c18.283 8.831 36.389 17.514 62.258 17.79 25.863.275 43.964-8.122 62.248-16.616l.049-.023c18.255-8.48 36.699-17.048 63.033-16.767 26.052.277 44.383 9.325 62.438 18.237l.641.316c18.282 9.022 36.377 17.801 62.229 17.525 25.674-.274 43.698-9.793 61.869-19.391l.361-.19c18.267-9.648 36.733-19.311 63.116-19.17 26.385.141 44.851 10.141 63.114 20.051l.076.041c18.265 9.912 36.345 19.72 62.145 19.995 25.84.276 43.92-9.103 62.21-18.602l.06-.031c18.25-9.476 36.7-19.062 63.06-18.781s45.79 9.529 64.56 19.048c.97.492 1.94.985 2.9 1.477 17.79 9.048 35.24 17.93 57.93 19.564 23.98 1.728 44.93-2.865 62.69-8.517 7.65-2.435 14.69-5.062 21.14-7.467 1.04-.388 2.07-.77 3.07-1.144 7.25-2.689 13.72-5.001 19.35-6.235.43-.096.88.115 1 .471s-.14.723-.58.819c-5.47 1.201-11.82 3.465-19.09 6.161l-3.06 1.141c-6.45 2.404-13.54 5.049-21.24 7.499-17.88 5.692-39.1 10.356-63.42 8.603-23.09-1.663-40.86-10.705-58.58-19.724-1-.505-1.99-1.01-2.98-1.514-18.76-9.515-37.85-18.571-63.71-18.846-25.84-.276-43.92 9.103-62.21 18.602l-.06.031c-18.25 9.476-36.71 19.062-63.06 18.781-26.29-.28-44.72-10.279-62.913-20.153l-.197-.107c-18.291-9.924-36.379-19.689-62.216-19.827s-43.926 9.297-62.213 18.955l-.472.249c-18.108 9.565-36.479 19.268-62.628 19.547-26.369.281-44.828-8.701-63.101-17.718l-.543-.268c-18.107-8.937-36.104-17.819-61.708-18.092-25.863-.276-43.964 8.121-62.248 16.615l-.049.023c-18.255 8.48-36.699 17.049-63.033 16.768-26.352-.281-44.8-9.151-63.072-17.976l-.186-.09c-18.223-8.802-36.296-17.532-62.08-18.013-25.87-.483-43.974 7.49-62.255 15.568l-.125.055c-18.232 8.057-36.658 16.199-62.947 15.779-26.338-.421-44.777-8.836-63.055-17.323l-.713-.331c-18.046-8.382-36.031-16.736-61.586-17.757-25.938-1.037-45.067 4.052-63.794 10.039-2.608.834-5.21 1.686-7.823 2.541" clip-rule="evenodd"/><path fill="#DEE2E6" fill-rule="evenodd" d="M110.023 131.92c-16.138 5.283-32.675 10.697-53.572 12.804-34.65 3.495-63.105 1.168-84.543-.584-8.486-.694-15.872-1.298-22.107-1.415-.453-.009-.811-.315-.8-.684.01-.369.385-.661.838-.652 6.402.12 13.897.733 22.462 1.434 21.403 1.751 49.494 4.05 83.949.575 20.67-2.085 37-7.429 53.138-12.711 2.619-.857 5.233-1.712 7.859-2.552 18.807-6.012 38.191-11.181 64.474-10.13 25.948 1.038 44.228 9.528 62.237 17.894l.793.368c18.277 8.487 36.393 16.734 62.275 17.148 25.856.413 43.955-7.584 62.226-15.658l.032-.014c18.274-8.076 36.724-16.221 63.075-15.73 26.214.489 44.606 9.373 62.783 18.153l.281.136c18.283 8.831 36.389 17.514 62.258 17.79 25.863.275 43.964-8.122 62.248-16.616l.049-.023c18.255-8.48 36.699-17.048 63.033-16.767 26.052.277 44.383 9.325 62.438 18.237l.641.316c18.282 9.022 36.377 17.801 62.229 17.525 25.674-.274 43.698-9.793 61.869-19.391l.361-.19c18.267-9.648 36.733-19.311 63.116-19.17 26.385.141 44.851 10.141 63.114 20.051l.076.041c18.265 9.912 36.345 19.72 62.145 19.995 25.84.276 43.92-9.103 62.21-18.602l.06-.031c18.25-9.476 36.7-19.062 63.06-18.781s45.79 9.529 64.56 19.048c.97.492 1.94.985 2.9 1.477 17.79 9.048 35.24 17.93 57.93 19.564 23.98 1.728 44.93-2.864 62.69-8.517 7.65-2.435 14.69-5.062 21.14-7.467 1.04-.388 2.07-.769 3.07-1.144 7.25-2.689 13.72-5.001 19.35-6.235.43-.096.88.115 1 .471s-.14.723-.58.819c-5.47 1.201-11.82 3.465-19.09 6.161l-3.06 1.141c-6.45 2.404-13.54 5.049-21.24 7.499-17.88 5.692-39.1 10.356-63.42 8.603-23.09-1.663-40.86-10.705-58.58-19.724-1-.505-1.99-1.01-2.98-1.514-18.76-9.515-37.85-18.571-63.71-18.846-25.84-.276-43.92 9.103-62.21 18.602l-.06.031c-18.25 9.476-36.71 19.062-63.06 18.782-26.29-.281-44.72-10.28-62.913-20.154l-.197-.107c-18.291-9.924-36.379-19.689-62.216-19.827-25.837-.137-43.926 9.297-62.213 18.955l-.472.249c-18.108 9.565-36.479 19.268-62.628 19.547-26.369.281-44.828-8.701-63.101-17.718l-.543-.268c-18.107-8.937-36.104-17.819-61.708-18.092-25.863-.276-43.964 8.121-62.248 16.615l-.049.023c-18.255 8.48-36.699 17.049-63.033 16.768-26.352-.281-44.8-9.151-63.072-17.976l-.186-.09c-18.223-8.802-36.296-17.532-62.08-18.013-25.87-.483-43.974 7.49-62.255 15.568l-.125.056c-18.232 8.056-36.658 16.198-62.947 15.778-26.338-.421-44.777-8.836-63.055-17.323l-.713-.331c-18.046-8.382-36.031-16.735-61.586-17.757-25.938-1.037-45.067 4.052-63.794 10.039-2.608.834-5.21 1.686-7.823 2.541" clip-rule="evenodd"/><path fill="#DEE2E6" fill-rule="evenodd" d="M110.023 121.23c-16.138 5.283-32.675 10.697-53.572 12.804-34.65 3.495-63.105 1.168-84.543-.584-8.486-.694-15.872-1.298-22.107-1.415-.453-.009-.811-.315-.8-.684.01-.369.385-.661.838-.652 6.402.12 13.897.733 22.462 1.434 21.403 1.752 49.494 4.05 83.949.575 20.67-2.085 37-7.429 53.138-12.711 2.619-.857 5.233-1.712 7.859-2.552 18.807-6.012 38.191-11.181 64.474-10.13 25.948 1.038 44.228 9.528 62.237 17.894l.793.368c18.277 8.487 36.393 16.734 62.275 17.148 25.856.413 43.955-7.584 62.226-15.658l.032-.014c18.274-8.075 36.724-16.221 63.075-15.73 26.214.489 44.606 9.373 62.783 18.153l.281.136c18.283 8.831 36.389 17.514 62.258 17.79 25.863.275 43.964-8.122 62.248-16.616l.049-.023c18.255-8.48 36.699-17.048 63.033-16.767 26.052.277 44.383 9.325 62.438 18.237l.641.316c18.282 9.022 36.377 17.801 62.229 17.525 25.674-.274 43.698-9.793 61.869-19.391l.361-.19c18.267-9.648 36.733-19.311 63.116-19.17 26.385.141 44.851 10.141 63.114 20.051l.076.041c18.265 9.912 36.345 19.72 62.145 19.995 25.84.276 43.92-9.103 62.21-18.602l.06-.031c18.25-9.476 36.7-19.062 63.06-18.781s45.79 9.529 64.56 19.048c.97.492 1.94.985 2.9 1.477 17.79 9.048 35.24 17.93 57.93 19.564 23.98 1.728 44.93-2.864 62.69-8.517 7.65-2.435 14.69-5.062 21.14-7.467 1.04-.387 2.07-.769 3.07-1.144 7.25-2.689 13.72-5.001 19.35-6.235.43-.096.88.115 1 .471s-.14.723-.58.819c-5.47 1.201-11.82 3.465-19.09 6.161l-3.06 1.141c-6.45 2.404-13.54 5.049-21.24 7.499-17.88 5.692-39.1 10.356-63.42 8.604-23.09-1.664-40.86-10.706-58.58-19.725-1-.505-1.99-1.01-2.98-1.514-18.76-9.515-37.85-18.57-63.71-18.846-25.84-.276-43.92 9.103-62.21 18.602l-.06.031c-18.25 9.476-36.71 19.063-63.06 18.782-26.29-.281-44.72-10.279-62.913-20.154l-.197-.106c-18.291-9.925-36.379-19.69-62.216-19.828s-43.926 9.297-62.213 18.955l-.472.25c-18.108 9.564-36.479 19.268-62.628 19.546-26.369.281-44.828-8.701-63.101-17.718l-.543-.268c-18.107-8.937-36.104-17.819-61.708-18.092-25.863-.276-43.964 8.122-62.248 16.615l-.049.023c-18.255 8.48-36.699 17.049-63.033 16.768-26.352-.281-44.8-9.151-63.072-17.976l-.186-.09c-18.223-8.802-36.296-17.532-62.08-18.013-25.87-.483-43.974 7.49-62.255 15.568l-.125.056c-18.232 8.056-36.658 16.198-62.947 15.778-26.338-.421-44.777-8.836-63.055-17.323l-.713-.331c-18.046-8.382-36.031-16.735-61.586-17.757-25.938-1.037-45.067 4.052-63.794 10.039-2.608.834-5.21 1.686-7.823 2.541" clip-rule="evenodd"/><path fill="#DEE2E6" fill-rule="evenodd" d="M110.023 110.54c-16.138 5.283-32.675 10.697-53.572 12.804-34.65 3.495-63.105 1.168-84.543-.584-8.486-.694-15.872-1.298-22.107-1.415-.453-.009-.811-.315-.8-.684.01-.369.385-.661.838-.652 6.402.12 13.897.734 22.462 1.434 21.403 1.752 49.494 4.05 83.949.575 20.67-2.085 37-7.429 53.138-12.711 2.619-.857 5.233-1.712 7.859-2.552 18.807-6.012 38.191-11.18 64.474-10.13 25.948 1.038 44.228 9.529 62.237 17.894l.793.368c18.277 8.487 36.393 16.734 62.275 17.148 25.856.414 43.955-7.584 62.226-15.658l.032-.014c18.274-8.075 36.724-16.221 63.075-15.73 26.214.489 44.606 9.374 62.783 18.153l.281.136c18.283 8.831 36.389 17.514 62.258 17.79 25.863.276 43.964-8.122 62.248-16.616l.049-.022c18.255-8.481 36.699-17.049 63.033-16.768 26.052.277 44.383 9.325 62.438 18.237l.641.316c18.282 9.022 36.377 17.801 62.229 17.525 25.674-.273 43.698-9.793 61.869-19.39l.361-.191c18.267-9.648 36.733-19.31 63.116-19.17 26.385.141 44.851 10.141 63.114 20.051l.076.041c18.265 9.912 36.345 19.72 62.145 19.996 25.84.275 43.92-9.104 62.21-18.603l.06-.031c18.25-9.476 36.7-19.062 63.06-18.781s45.79 9.529 64.56 19.048c.97.492 1.94.985 2.9 1.477 17.79 9.048 35.24 17.93 57.93 19.565 23.98 1.727 44.93-2.865 62.69-8.518 7.65-2.435 14.69-5.062 21.14-7.467 1.04-.387 2.07-.769 3.07-1.144 7.25-2.689 13.72-5.001 19.35-6.235.43-.096.88.115 1 .471s-.14.723-.58.819c-5.47 1.201-11.82 3.465-19.09 6.161l-3.06 1.141c-6.45 2.405-13.54 5.049-21.24 7.499-17.88 5.692-39.1 10.356-63.42 8.604-23.09-1.664-40.86-10.706-58.58-19.725-1-.505-1.99-1.01-2.98-1.513-18.76-9.516-37.85-18.571-63.71-18.847-25.84-.276-43.92 9.103-62.21 18.603l-.06.03c-18.25 9.477-36.71 19.063-63.06 18.782-26.29-.281-44.72-10.279-62.913-20.154l-.197-.106c-18.291-9.925-36.379-19.69-62.216-19.828s-43.926 9.297-62.213 18.955l-.472.25c-18.108 9.564-36.479 19.268-62.628 19.546-26.369.282-44.828-8.701-63.101-17.718l-.543-.268c-18.107-8.937-36.104-17.819-61.708-18.092-25.863-.276-43.964 8.122-62.248 16.615l-.049.023c-18.255 8.48-36.699 17.049-63.033 16.768-26.352-.281-44.8-9.151-63.072-17.976l-.186-.09c-18.223-8.802-36.296-17.532-62.08-18.013-25.87-.482-43.974 7.49-62.255 15.568l-.125.056c-18.232 8.056-36.658 16.198-62.947 15.778-26.338-.421-44.777-8.836-63.055-17.323l-.713-.331c-18.046-8.382-36.031-16.735-61.586-17.757-25.938-1.037-45.067 4.053-63.794 10.039-2.608.834-5.21 1.686-7.823 2.541" clip-rule="evenodd"/><path fill="#DEE2E6" fill-rule="evenodd" d="M110.023 99.85c-16.138 5.283-32.675 10.697-53.572 12.804-34.65 3.495-63.105 1.168-84.543-.584-8.486-.694-15.872-1.298-22.107-1.415-.453-.009-.811-.315-.8-.684.01-.368.385-.661.838-.652 6.402.12 13.897.734 22.462 1.434 21.403 1.752 49.494 4.05 83.949.575 20.67-2.084 37-7.429 53.138-12.71 2.619-.858 5.233-1.713 7.859-2.553 18.807-6.012 38.191-11.18 64.474-10.13 25.948 1.038 44.228 9.529 62.237 17.894l.793.368c18.277 8.487 36.393 16.734 62.275 17.148 25.856.414 43.955-7.584 62.226-15.658l.032-.014c18.274-8.075 36.724-16.221 63.075-15.73 26.214.49 44.606 9.374 62.783 18.154l.281.136c18.283 8.83 36.389 17.513 62.258 17.789 25.863.276 43.964-8.122 62.248-16.616l.049-.022c18.255-8.481 36.699-17.049 63.033-16.768 26.052.278 44.383 9.325 62.438 18.237l.641.316c18.282 9.022 36.377 17.801 62.229 17.525 25.674-.273 43.698-9.793 61.869-19.39l.361-.191c18.267-9.648 36.733-19.31 63.116-19.17 26.385.14 44.851 10.142 63.114 20.052l.076.04c18.265 9.912 36.345 19.72 62.145 19.996 25.84.275 43.92-9.104 62.21-18.603l.06-.031c18.25-9.476 36.7-19.062 63.06-18.781 26.36.28 45.79 9.529 64.56 19.048.97.492 1.94.985 2.9 1.477 17.79 9.048 35.24 17.93 57.93 19.565 23.98 1.727 44.93-2.865 62.69-8.517 7.65-2.435 14.69-5.063 21.14-7.468 1.04-.387 2.07-.769 3.07-1.144 7.25-2.689 13.72-5.001 19.35-6.235.43-.096.88.115 1 .471s-.14.723-.58.819c-5.47 1.201-11.82 3.465-19.09 6.161l-3.06 1.141c-6.45 2.405-13.54 5.049-21.24 7.499-17.88 5.692-39.1 10.356-63.42 8.604-23.09-1.664-40.86-10.706-58.58-19.725-1-.505-1.99-1.01-2.98-1.513-18.76-9.516-37.85-18.571-63.71-18.847-25.84-.275-43.92 9.103-62.21 18.603l-.06.03c-18.25 9.477-36.71 19.063-63.06 18.782-26.29-.281-44.72-10.279-62.913-20.154l-.197-.106c-18.291-9.925-36.379-19.69-62.216-19.827s-43.926 9.296-62.213 18.954l-.472.25c-18.108 9.564-36.479 19.268-62.628 19.546-26.369.282-44.828-8.701-63.101-17.718l-.543-.268c-18.107-8.937-36.104-17.82-61.708-18.092-25.863-.276-43.964 8.122-62.248 16.615l-.049.023c-18.255 8.481-36.699 17.049-63.033 16.768-26.352-.281-44.8-9.15-63.072-17.976l-.186-.09c-18.223-8.802-36.296-17.532-62.08-18.013-25.87-.482-43.974 7.49-62.255 15.568l-.125.056c-18.232 8.056-36.658 16.199-62.947 15.778-26.338-.421-44.777-8.835-63.055-17.323l-.713-.331c-18.046-8.382-36.031-16.735-61.586-17.757-25.938-1.037-45.067 4.053-63.794 10.04-2.608.833-5.21 1.685-7.823 2.54" clip-rule="evenodd"/><path fill="#DEE2E6" fill-rule="evenodd" d="M110.023 89.16c-16.138 5.283-32.675 10.697-53.572 12.804-34.65 3.495-63.105 1.168-84.543-.584-8.486-.694-15.872-1.298-22.107-1.415-.453-.009-.811-.315-.8-.684.01-.368.385-.66.838-.652 6.402.12 13.897.734 22.462 1.434 21.403 1.752 49.494 4.05 83.949.575 20.67-2.084 37-7.429 53.138-12.71 2.619-.858 5.233-1.713 7.859-2.553 18.807-6.012 38.191-11.18 64.474-10.13 25.948 1.038 44.228 9.529 62.237 17.894l.793.368c18.277 8.487 36.393 16.734 62.275 17.148 25.856.414 43.955-7.584 62.226-15.658l.032-.014c18.274-8.075 36.724-16.221 63.075-15.73 26.214.49 44.606 9.374 62.783 18.154l.281.136c18.283 8.83 36.389 17.513 62.258 17.789 25.863.276 43.964-8.122 62.248-16.615l.049-.023c18.255-8.48 36.699-17.049 63.033-16.768 26.052.278 44.383 9.325 62.438 18.237l.641.316c18.282 9.022 36.377 17.801 62.229 17.525 25.674-.273 43.698-9.793 61.869-19.39l.361-.19c18.267-9.649 36.733-19.311 63.116-19.17 26.385.14 44.851 10.14 63.114 20.05l.076.041c18.265 9.913 36.345 19.721 62.145 19.996 25.84.275 43.92-9.103 62.21-18.603l.06-.031c18.25-9.476 36.7-19.062 63.06-18.781 26.36.28 45.79 9.529 64.56 19.048.97.492 1.94.985 2.9 1.477 17.79 9.048 35.24 17.93 57.93 19.565 23.98 1.727 44.93-2.865 62.69-8.517 7.65-2.435 14.69-5.063 21.14-7.468 1.04-.387 2.07-.769 3.07-1.144 7.25-2.689 13.72-5 19.35-6.235.43-.096.88.115 1 .471s-.14.723-.58.82c-5.47 1.2-11.82 3.464-19.09 6.16l-3.06 1.141c-6.45 2.405-13.54 5.049-21.24 7.499-17.88 5.692-39.1 10.356-63.42 8.604-23.09-1.664-40.86-10.706-58.58-19.725-1-.505-1.99-1.01-2.98-1.513-18.76-9.516-37.85-18.571-63.71-18.847-25.84-.275-43.92 9.103-62.21 18.603l-.06.03c-18.25 9.477-36.71 19.063-63.06 18.782-26.29-.28-44.72-10.279-62.913-20.154l-.197-.106c-18.291-9.925-36.379-19.69-62.216-19.827s-43.926 9.296-62.213 18.954l-.472.25c-18.108 9.564-36.479 19.268-62.628 19.547-26.369.281-44.828-8.701-63.101-17.719l-.543-.268c-18.107-8.936-36.104-17.819-61.708-18.092-25.863-.276-43.964 8.122-62.248 16.615l-.049.023c-18.255 8.481-36.699 17.049-63.033 16.768-26.352-.281-44.8-9.15-63.072-17.976l-.186-.09c-18.223-8.802-36.296-17.532-62.08-18.013-25.87-.482-43.974 7.49-62.255 15.568l-.125.056c-18.232 8.056-36.658 16.199-62.947 15.778-26.338-.421-44.777-8.835-63.055-17.323l-.713-.331c-18.046-8.382-36.031-16.735-61.586-17.757-25.938-1.037-45.067 4.053-63.794 10.04-2.608.833-5.21 1.685-7.823 2.54" clip-rule="evenodd"/><path fill="#DEE2E6" fill-rule="evenodd" d="M110.023 78.47c-16.138 5.283-32.675 10.697-53.572 12.804-34.65 3.495-63.105 1.169-84.543-.584-8.486-.694-15.872-1.298-22.107-1.415-.453-.009-.811-.315-.8-.683.01-.37.385-.662.838-.653 6.402.12 13.897.734 22.462 1.435 21.403 1.75 49.494 4.05 83.949.574 20.67-2.084 37-7.429 53.138-12.71a1204 1204 0 0 1 7.859-2.553c18.807-6.012 38.191-11.18 64.474-10.13 25.948 1.038 44.228 9.529 62.237 17.894l.793.368c18.277 8.487 36.393 16.734 62.275 17.148 25.856.414 43.955-7.584 62.226-15.658l.032-.014c18.274-8.075 36.724-16.221 63.075-15.73 26.214.49 44.606 9.374 62.783 18.154l.281.136c18.283 8.83 36.389 17.513 62.258 17.789 25.863.276 43.964-8.122 62.248-16.615l.049-.023c18.255-8.48 36.699-17.049 63.033-16.768 26.052.278 44.383 9.325 62.438 18.237l.641.316c18.282 9.022 36.377 17.801 62.229 17.525 25.674-.273 43.698-9.793 61.869-19.39l.361-.19c18.267-9.648 36.733-19.311 63.116-19.17 26.385.14 44.851 10.14 63.114 20.05l.076.042c18.265 9.912 36.345 19.72 62.145 19.995 25.84.275 43.92-9.103 62.21-18.603l.06-.03c18.25-9.477 36.7-19.063 63.06-18.782s45.79 9.529 64.56 19.048c.97.492 1.94.985 2.9 1.477 17.79 9.049 35.24 17.93 57.93 19.565 23.98 1.727 44.93-2.865 62.69-8.517 7.65-2.435 14.69-5.063 21.14-7.468 1.04-.387 2.07-.77 3.07-1.144 7.25-2.689 13.72-5 19.35-6.235.43-.096.88.115 1 .471s-.14.723-.58.82c-5.47 1.2-11.82 3.464-19.09 6.16l-3.06 1.142c-6.45 2.404-13.54 5.048-21.24 7.498-17.88 5.692-39.1 10.356-63.42 8.604-23.09-1.664-40.86-10.706-58.58-19.725-1-.505-1.99-1.01-2.98-1.513-18.76-9.516-37.85-18.571-63.71-18.847-25.84-.275-43.92 9.103-62.21 18.603l-.06.03c-18.25 9.477-36.71 19.063-63.06 18.782-26.29-.28-44.72-10.28-62.913-20.154l-.197-.106c-18.291-9.925-36.379-19.69-62.216-19.827s-43.926 9.296-62.213 18.954l-.472.25c-18.108 9.564-36.479 19.268-62.628 19.547-26.369.281-44.828-8.701-63.101-17.719l-.543-.268c-18.107-8.936-36.104-17.819-61.708-18.092-25.863-.276-43.964 8.122-62.248 16.615l-.049.023c-18.255 8.48-36.699 17.049-63.033 16.768-26.352-.281-44.8-9.15-63.072-17.976l-.186-.09c-18.223-8.802-36.296-17.532-62.08-18.013-25.87-.482-43.974 7.49-62.255 15.568l-.125.056c-18.232 8.056-36.658 16.199-62.947 15.778-26.338-.421-44.777-8.835-63.055-17.323l-.713-.331c-18.046-8.382-36.031-16.735-61.586-17.757-25.938-1.037-45.067 4.053-63.794 10.04-2.608.833-5.21 1.685-7.823 2.54" clip-rule="evenodd"/><path fill="#DEE2E6" fill-rule="evenodd" d="M110.023 67.78c-16.138 5.283-32.675 10.697-53.572 12.805-34.65 3.494-63.105 1.168-84.543-.585-8.486-.694-15.872-1.298-22.107-1.415-.453-.008-.811-.314-.8-.683.01-.37.385-.661.838-.653 6.402.12 13.897.734 22.462 1.435 21.403 1.75 49.494 4.05 83.949.574 20.67-2.084 37-7.429 53.138-12.71 2.619-.858 5.233-1.713 7.859-2.553 18.807-6.011 38.191-11.18 64.474-10.13 25.948 1.038 44.228 9.529 62.237 17.894l.793.368c18.277 8.487 36.393 16.734 62.275 17.148 25.856.414 43.955-7.584 62.226-15.658l.032-.014c18.274-8.075 36.724-16.221 63.075-15.73 26.214.49 44.606 9.374 62.783 18.154l.281.136c18.283 8.83 36.389 17.513 62.258 17.789 25.863.276 43.964-8.122 62.248-16.615l.049-.023c18.255-8.48 36.699-17.049 63.033-16.768 26.052.278 44.383 9.325 62.438 18.237l.641.316c18.282 9.022 36.377 17.801 62.229 17.525 25.674-.273 43.698-9.793 61.869-19.39l.361-.19c18.267-9.648 36.733-19.311 63.116-19.17 26.385.14 44.851 10.14 63.114 20.05l.076.042c18.265 9.912 36.345 19.72 62.145 19.995 25.84.275 43.92-9.103 62.21-18.603l.06-.03c18.25-9.477 36.7-19.063 63.06-18.782s45.79 9.53 64.56 19.048c.97.492 1.94.985 2.9 1.477 17.79 9.049 35.24 17.93 57.93 19.565 23.98 1.727 44.93-2.865 62.69-8.517 7.65-2.435 14.69-5.063 21.14-7.467 1.04-.388 2.07-.77 3.07-1.145 7.25-2.688 13.72-5 19.35-6.235.43-.096.88.115 1 .471.12.357-.14.723-.58.82-5.47 1.2-11.82 3.464-19.09 6.16l-3.06 1.142c-6.45 2.404-13.54 5.048-21.24 7.498-17.88 5.692-39.1 10.356-63.42 8.604-23.09-1.664-40.86-10.706-58.58-19.725-1-.505-1.99-1.01-2.98-1.513-18.76-9.516-37.85-18.571-63.71-18.847-25.84-.275-43.92 9.103-62.21 18.603l-.06.03c-18.25 9.477-36.71 19.063-63.06 18.782-26.29-.28-44.72-10.28-62.913-20.154l-.197-.106c-18.291-9.925-36.379-19.69-62.216-19.827s-43.926 9.296-62.213 18.955l-.472.249c-18.108 9.564-36.479 19.268-62.628 19.547-26.369.28-44.828-8.701-63.101-17.719l-.543-.268c-18.107-8.936-36.104-17.819-61.708-18.092-25.863-.276-43.964 8.122-62.248 16.616l-.049.022C602.437 87 583.993 95.57 557.659 95.288c-26.352-.28-44.8-9.15-63.072-17.976l-.186-.09c-18.223-8.802-36.296-17.531-62.08-18.012-25.87-.483-43.974 7.49-62.255 15.568l-.125.055c-18.232 8.056-36.658 16.199-62.947 15.778-26.338-.421-44.777-8.835-63.055-17.323l-.713-.331C225.18 64.575 207.195 56.222 181.64 55.2c-25.938-1.037-45.067 4.053-63.794 10.04-2.608.833-5.21 1.685-7.823 2.54" clip-rule="evenodd"/><path fill="#DEE2E6" fill-rule="evenodd" d="M110.023 57.09c-16.138 5.283-32.675 10.697-53.572 12.804-34.65 3.495-63.105 1.169-84.543-.584-8.486-.694-15.872-1.298-22.107-1.415-.453-.008-.811-.314-.8-.683.01-.37.385-.661.838-.653 6.402.12 13.897.734 22.462 1.435 21.403 1.75 49.494 4.05 83.949.574 20.67-2.084 37-7.428 53.138-12.71 2.619-.858 5.233-1.713 7.859-2.553 18.807-6.011 38.191-11.18 64.474-10.13 25.948 1.038 44.228 9.529 62.237 17.894l.793.368c18.277 8.487 36.393 16.734 62.275 17.148 25.856.414 43.955-7.584 62.226-15.657l.032-.015c18.274-8.075 36.724-16.221 63.075-15.73 26.214.49 44.606 9.374 62.783 18.154l.281.136c18.283 8.83 36.389 17.513 62.258 17.79 25.863.275 43.964-8.123 62.248-16.616l.049-.023c18.255-8.48 36.699-17.049 63.033-16.768 26.052.278 44.383 9.325 62.438 18.237l.641.316c18.282 9.022 36.377 17.801 62.229 17.526 25.674-.274 43.698-9.794 61.869-19.391l.361-.19c18.267-9.648 36.733-19.311 63.116-19.17 26.385.14 44.851 10.14 63.114 20.05l.076.042c18.265 9.912 36.345 19.72 62.145 19.995 25.84.275 43.92-9.103 62.21-18.603l.06-.03c18.25-9.477 36.7-19.063 63.06-18.782s45.79 9.53 64.56 19.048c.97.492 1.94.985 2.9 1.477 17.79 9.049 35.24 17.93 57.93 19.565 23.98 1.727 44.93-2.865 62.69-8.517 7.65-2.435 14.69-5.063 21.14-7.467 1.04-.388 2.07-.77 3.07-1.145 7.25-2.688 13.72-5 19.35-6.235.43-.096.88.115 1 .471.12.357-.14.723-.58.82-5.47 1.2-11.82 3.464-19.09 6.16l-3.06 1.142c-6.45 2.404-13.54 5.049-21.24 7.498-17.88 5.692-39.1 10.356-63.42 8.604-23.09-1.663-40.86-10.706-58.58-19.725-1-.505-1.99-1.01-2.98-1.513-18.76-9.515-37.85-18.571-63.71-18.847-25.84-.275-43.92 9.103-62.21 18.603l-.06.03c-18.25 9.477-36.71 19.063-63.06 18.782-26.29-.28-44.72-10.28-62.913-20.153l-.197-.107c-18.291-9.925-36.379-19.69-62.216-19.827s-43.926 9.296-62.213 18.955l-.472.249c-18.108 9.564-36.479 19.268-62.628 19.547-26.369.28-44.828-8.701-63.101-17.719l-.543-.268c-18.107-8.936-36.104-17.819-61.708-18.092-25.863-.276-43.964 8.122-62.248 16.616l-.049.022c-18.255 8.48-36.699 17.049-63.033 16.768-26.352-.28-44.8-9.15-63.072-17.976l-.186-.09c-18.223-8.802-36.296-17.531-62.08-18.012-25.87-.483-43.974 7.49-62.255 15.568l-.125.055c-18.232 8.057-36.658 16.199-62.947 15.778-26.338-.42-44.777-8.835-63.055-17.323l-.713-.331c-18.046-8.382-36.031-16.735-61.586-17.757-25.938-1.037-45.067 4.053-63.794 10.04-2.608.833-5.21 1.685-7.823 2.54" clip-rule="evenodd"/><path fill="#DEE2E6" fill-rule="evenodd" d="M110.023 46.4c-16.138 5.283-32.675 10.697-53.572 12.805-34.65 3.494-63.105 1.168-84.543-.585-8.486-.694-15.872-1.298-22.107-1.415-.453-.008-.811-.314-.8-.683.01-.37.385-.661.838-.653 6.402.12 13.897.734 22.462 1.435 21.403 1.751 49.494 4.05 83.949.575 20.67-2.085 37-7.43 53.138-12.712 2.619-.857 5.233-1.712 7.859-2.552 18.807-6.011 38.191-11.18 64.474-10.13 25.948 1.038 44.228 9.529 62.237 17.894l.793.369c18.277 8.487 36.393 16.734 62.275 17.147 25.856.414 43.955-7.584 62.226-15.657l.032-.015c18.274-8.075 36.724-16.22 63.075-15.73 26.214.49 44.606 9.374 62.783 18.154l.281.136c18.283 8.83 36.389 17.513 62.258 17.79 25.863.275 43.964-8.123 62.248-16.616l.049-.023c18.255-8.48 36.699-17.049 63.033-16.768 26.052.278 44.383 9.325 62.438 18.237l.641.316c18.282 9.023 36.377 17.801 62.229 17.526 25.674-.274 43.698-9.794 61.869-19.391l.361-.19c18.267-9.648 36.733-19.311 63.116-19.17 26.385.14 44.851 10.14 63.114 20.05l.076.042c18.265 9.912 36.345 19.72 62.145 19.995 25.84.275 43.92-9.103 62.21-18.603l.06-.03c18.25-9.477 36.7-19.063 63.06-18.782s45.79 9.53 64.56 19.048c.97.492 1.94.985 2.9 1.477 17.79 9.049 35.24 17.93 57.93 19.565 23.98 1.727 44.93-2.865 62.69-8.517 7.65-2.435 14.69-5.063 21.14-7.467 1.04-.388 2.07-.77 3.07-1.144 7.25-2.69 13.72-5.001 19.35-6.236.43-.096.88.115 1 .471.12.357-.14.723-.58.82-5.47 1.2-11.82 3.465-19.09 6.16l-3.06 1.142c-6.45 2.404-13.54 5.049-21.24 7.498-17.88 5.692-39.1 10.356-63.42 8.604-23.09-1.663-40.86-10.706-58.58-19.725-1-.505-1.99-1.01-2.98-1.513-18.76-9.515-37.85-18.571-63.71-18.847-25.84-.275-43.92 9.103-62.21 18.603l-.06.03c-18.25 9.477-36.71 19.063-63.06 18.782-26.29-.28-44.72-10.279-62.913-20.153l-.197-.107c-18.291-9.925-36.379-19.69-62.216-19.827s-43.926 9.296-62.213 18.955l-.472.249c-18.108 9.564-36.479 19.268-62.628 19.547-26.369.28-44.828-8.701-63.101-17.719l-.543-.268c-18.107-8.936-36.104-17.819-61.708-18.092-25.863-.276-43.964 8.122-62.248 16.616l-.049.023c-18.255 8.48-36.699 17.048-63.033 16.767-26.352-.28-44.8-9.15-63.072-17.976l-.186-.09c-18.223-8.802-36.296-17.531-62.08-18.012-25.87-.483-43.974 7.49-62.255 15.568l-.125.055c-18.232 8.057-36.658 16.199-62.947 15.778-26.338-.42-44.777-8.835-63.055-17.323l-.713-.33c-18.046-8.383-36.031-16.736-61.586-17.758-25.938-1.037-45.067 4.053-63.794 10.04-2.608.833-5.21 1.685-7.823 2.54" clip-rule="evenodd"/><path fill="#DEE2E6" fill-rule="evenodd" d="M110.023 35.71c-16.138 5.283-32.675 10.697-53.572 12.805-34.65 3.494-63.105 1.168-84.543-.585-8.486-.694-15.872-1.297-22.107-1.415-.453-.008-.811-.314-.8-.683.01-.37.385-.661.838-.653 6.402.12 13.897.734 22.462 1.435 21.403 1.751 49.494 4.05 83.949.575 20.67-2.085 37-7.43 53.138-12.711 2.619-.858 5.233-1.713 7.859-2.553 18.807-6.011 38.191-11.18 64.474-10.13 25.948 1.038 44.228 9.529 62.237 17.894l.793.368c18.277 8.487 36.393 16.734 62.275 17.148 25.856.414 43.955-7.584 62.226-15.657l.032-.015c18.274-8.075 36.724-16.22 63.075-15.73 26.214.49 44.606 9.374 62.783 18.154l.281.136c18.283 8.83 36.389 17.513 62.258 17.79 25.863.275 43.964-8.123 62.248-16.616l.049-.023c18.255-8.48 36.699-17.049 63.033-16.768 26.052.278 44.383 9.325 62.438 18.238l.641.316c18.282 9.021 36.377 17.8 62.229 17.525 25.674-.274 43.698-9.794 61.869-19.391l.361-.19c18.267-9.648 36.733-19.311 63.116-19.17 26.385.14 44.851 10.14 63.114 20.05l.076.042c18.265 9.912 36.345 19.72 62.145 19.995 25.84.275 43.92-9.103 62.21-18.603l.06-.03c18.25-9.477 36.7-19.063 63.06-18.782s45.79 9.53 64.56 19.049c.97.492 1.94.984 2.9 1.477 17.79 9.048 35.24 17.93 57.93 19.564 23.98 1.727 44.93-2.865 62.69-8.517 7.65-2.435 14.69-5.062 21.14-7.467 1.04-.388 2.07-.77 3.07-1.144 7.25-2.69 13.72-5.001 19.35-6.236.43-.096.88.115 1 .471.12.357-.14.723-.58.82-5.47 1.2-11.82 3.465-19.09 6.16q-1.5.56-3.06 1.142c-6.45 2.404-13.54 5.049-21.24 7.499-17.88 5.692-39.1 10.356-63.42 8.603-23.09-1.663-40.86-10.706-58.58-19.725-1-.505-1.99-1.01-2.98-1.513-18.76-9.515-37.85-18.571-63.71-18.847-25.84-.275-43.92 9.103-62.21 18.603l-.06.03c-18.25 9.477-36.71 19.063-63.06 18.782-26.29-.28-44.72-10.279-62.913-20.153l-.197-.107c-18.291-9.925-36.379-19.69-62.216-19.827s-43.926 9.296-62.213 18.955l-.472.249c-18.108 9.564-36.479 19.268-62.628 19.547-26.369.281-44.828-8.701-63.101-17.719l-.543-.267c-18.107-8.937-36.104-17.82-61.708-18.093-25.863-.275-43.964 8.122-62.248 16.616l-.049.023c-18.255 8.48-36.699 17.048-63.033 16.767-26.352-.28-44.8-9.15-63.072-17.976l-.186-.09c-18.223-8.802-36.296-17.531-62.08-18.012-25.87-.483-43.974 7.49-62.255 15.568l-.125.055c-18.232 8.057-36.658 16.199-62.947 15.778-26.338-.42-44.777-8.835-63.055-17.322l-.713-.332c-18.046-8.382-36.031-16.735-61.586-17.757-25.938-1.037-45.067 4.053-63.794 10.04-2.608.833-5.21 1.685-7.823 2.54" clip-rule="evenodd"/><path fill="#DEE2E6" fill-rule="evenodd" d="M110.023 25.02c-16.138 5.283-32.675 10.697-53.572 12.805-34.65 3.494-63.105 1.168-84.543-.585-8.486-.694-15.872-1.297-22.107-1.415-.453-.008-.811-.314-.8-.683.01-.369.385-.661.838-.653 6.402.12 13.897.734 22.462 1.435 21.403 1.751 49.494 4.05 83.949.575 20.67-2.085 37-7.43 53.138-12.711a1204 1204 0 0 1 7.859-2.552c18.807-6.012 38.191-11.181 64.474-10.13 25.948 1.037 44.228 9.528 62.237 17.893l.793.369c18.277 8.487 36.393 16.734 62.275 17.148 25.856.413 43.955-7.585 62.226-15.658l.032-.015c18.274-8.075 36.724-16.22 63.075-15.73 26.214.49 44.606 9.374 62.783 18.154l.281.136c18.283 8.83 36.389 17.514 62.258 17.79 25.863.275 43.964-8.122 62.248-16.616l.049-.023c18.255-8.48 36.699-17.048 63.033-16.768 26.052.278 44.383 9.325 62.438 18.238l.641.316c18.282 9.022 36.377 17.8 62.229 17.525 25.674-.274 43.698-9.794 61.869-19.391l.361-.19c18.267-9.648 36.733-19.31 63.116-19.17 26.385.14 44.851 10.14 63.114 20.051l.076.04c18.265 9.913 36.345 19.72 62.145 19.996 25.84.276 43.92-9.103 62.21-18.603l.06-.03c18.25-9.477 36.7-19.063 63.06-18.782s45.79 9.53 64.56 19.049c.97.492 1.94.984 2.9 1.477 17.79 9.048 35.24 17.93 57.93 19.564 23.98 1.727 44.93-2.865 62.69-8.517 7.65-2.435 14.69-5.062 21.14-7.467 1.04-.388 2.07-.77 3.07-1.144 7.25-2.69 13.72-5.001 19.35-6.236.43-.096.88.115 1 .471.12.357-.14.723-.58.82-5.47 1.2-11.82 3.465-19.09 6.16q-1.5.561-3.06 1.142c-6.45 2.404-13.54 5.049-21.24 7.499-17.88 5.692-39.1 10.356-63.42 8.603-23.09-1.663-40.86-10.705-58.58-19.725-1-.505-1.99-1.01-2.98-1.513-18.76-9.515-37.85-18.57-63.71-18.847-25.84-.275-43.92 9.104-62.21 18.603l-.06.03c-18.25 9.477-36.71 19.063-63.06 18.782-26.29-.28-44.72-10.279-62.913-20.153l-.197-.107c-18.291-9.925-36.379-19.69-62.216-19.827s-43.926 9.297-62.213 18.955l-.472.25c-18.108 9.563-36.479 19.267-62.628 19.546-26.369.281-44.828-8.701-63.101-17.718l-.543-.268c-18.107-8.937-36.104-17.82-61.708-18.093-25.863-.275-43.964 8.122-62.248 16.616l-.049.023c-18.255 8.48-36.699 17.048-63.033 16.767-26.352-.28-44.8-9.15-63.072-17.976l-.186-.09c-18.223-8.801-36.296-17.531-62.08-18.012-25.87-.483-43.974 7.49-62.255 15.568l-.125.055c-18.232 8.057-36.658 16.199-62.947 15.779-26.338-.422-44.777-8.836-63.055-17.323l-.713-.332c-18.046-8.382-36.031-16.735-61.586-17.757-25.938-1.037-45.067 4.053-63.794 10.04-2.608.833-5.21 1.685-7.823 2.54" clip-rule="evenodd"/><path fill="#DEE2E6" fill-rule="evenodd" d="M110.023 14.33c-16.138 5.283-32.675 10.697-53.572 12.805-34.65 3.494-63.105 1.168-84.543-.585-8.486-.694-15.872-1.297-22.107-1.415-.453-.008-.811-.314-.8-.683.01-.369.385-.661.838-.653 6.402.12 13.897.734 22.462 1.435 21.403 1.751 49.494 4.05 83.949.575 20.67-2.085 37-7.43 53.138-12.711 2.619-.857 5.233-1.713 7.859-2.552C136.054 4.534 155.438-.635 181.721.416c25.948 1.037 44.228 9.528 62.237 17.893l.793.369c18.277 8.487 36.393 16.734 62.275 17.148 25.856.413 43.955-7.585 62.226-15.658l.032-.015c18.274-8.075 36.724-16.22 63.075-15.73 26.214.49 44.606 9.374 62.783 18.154l.281.136c18.283 8.83 36.389 17.514 62.258 17.79 25.863.275 43.964-8.122 62.248-16.616l.049-.023c18.255-8.48 36.699-17.048 63.033-16.768 26.052.278 44.383 9.326 62.438 18.238l.641.316c18.282 9.022 36.377 17.8 62.229 17.525 25.674-.274 43.698-9.793 61.869-19.39l.361-.191c18.267-9.648 36.733-19.31 63.116-19.17 26.385.14 44.851 10.141 63.114 20.051l.076.041c18.265 9.912 36.345 19.72 62.145 19.995 25.84.275 43.92-9.103 62.21-18.603l.06-.03c18.25-9.477 36.7-19.063 63.06-18.782s45.79 9.53 64.56 19.049c.97.492 1.94.984 2.9 1.477 17.79 9.048 35.24 17.93 57.93 19.564 23.98 1.727 44.93-2.865 62.69-8.517 7.65-2.435 14.69-5.062 21.14-7.467 1.04-.388 2.07-.77 3.07-1.144 7.25-2.69 13.72-5.001 19.35-6.236.43-.096.88.115 1 .472.12.356-.14.723-.58.819-5.47 1.2-11.82 3.465-19.09 6.16q-1.5.561-3.06 1.142c-6.45 2.404-13.54 5.049-21.24 7.499-17.88 5.692-39.1 10.356-63.42 8.603-23.09-1.663-40.86-10.705-58.58-19.725-1-.505-1.99-1.01-2.98-1.513-18.76-9.515-37.85-18.57-63.71-18.847-25.84-.275-43.92 9.104-62.21 18.603l-.06.03c-18.25 9.477-36.71 19.063-63.06 18.782-26.29-.28-44.72-10.279-62.913-20.153l-.197-.107c-18.291-9.925-36.379-19.69-62.216-19.827s-43.926 9.297-62.213 18.955l-.472.25c-18.108 9.564-36.479 19.267-62.628 19.546-26.369.281-44.828-8.701-63.101-17.718l-.543-.268c-18.107-8.937-36.104-17.82-61.708-18.093-25.863-.275-43.964 8.122-62.248 16.616l-.049.023c-18.255 8.48-36.699 17.048-63.033 16.768-26.352-.282-44.8-9.151-63.072-17.976l-.186-.09C476.178 14.97 458.105 6.24 432.321 5.76c-25.87-.483-43.974 7.49-62.255 15.568l-.125.055c-18.232 8.057-36.658 16.199-62.947 15.779-26.338-.422-44.777-8.836-63.055-17.323l-.713-.332C225.18 11.125 207.195 2.772 181.64 1.75c-25.938-1.037-45.067 4.053-63.794 10.04-2.608.833-5.21 1.685-7.823 2.54" clip-rule="evenodd"/></svg>