<svg width="51" height="52" viewBox="0 0 51 52" fill="none" xmlns="http://www.w3.org/2000/svg">
<path d="M41.7946 44.9794L36.128 50.6054L33.318 47.7947L38.944 42.1281L33.318 36.4614L36.128 33.6514L41.7946 39.2774L47.4613 33.6514L50.272 36.4614L44.646 42.1281L50.272 47.7947L47.4613 50.6054L41.7946 44.9794ZM6.99997 51.3334C5.13686 51.3334 3.55997 50.6881 2.2693 49.3974C0.978638 48.1067 0.333305 46.5299 0.333305 44.6667V36.9747H8.3333V0.666748H45.6666V26.8974C45.0271 26.689 44.374 26.537 43.7073 26.4414C43.0406 26.3454 42.3604 26.2974 41.6666 26.2974V4.66675H12.3333V36.9747H26.8306C26.6053 37.6139 26.4275 38.2625 26.2973 38.9207C26.1675 39.5785 26.0855 40.263 26.0513 40.9741H4.33331V44.6667C4.33331 45.4223 4.58886 46.0556 5.09997 46.5667C5.61108 47.0779 6.24442 47.3334 6.99997 47.3334H26.8306C27.0835 48.0992 27.404 48.8112 27.792 49.4694C28.18 50.1272 28.6184 50.7485 29.1073 51.3334H6.99997ZM15.5126 17.1794V13.1794H38.4873V17.1794H15.5126ZM15.5126 24.8721V20.8721H38.4873V24.8721H15.5126ZM26.8306 47.3334H4.33331H26.0513H25.9946H26.8306Z" fill="#04043D"/>
</svg>
