<svg width="28" height="28" viewBox="0 0 28 28" fill="none" xmlns="http://www.w3.org/2000/svg">
<path d="M3.11111 0C1.39222 0 0 1.39222 0 3.11111V24.8889C0 26.6078 1.39222 28 3.11111 28H24.8889C26.6078 28 28 26.6078 28 24.8889V3.11111C28 1.39222 26.6078 0 24.8889 0H3.11111ZM3.11111 3.11111H24.8889V24.8889H3.11111V3.11111ZM7.43446 5.15885C6.10135 5.15885 5.30165 5.96023 5.30165 7.02734C5.30165 8.09445 6.10145 8.8928 7.30078 8.8928C8.63389 8.8928 9.43359 8.09445 9.43359 7.02734C9.43359 5.96023 8.6338 5.15885 7.43446 5.15885ZM5.40799 10.8889V21.7778H9.33333V10.8889H5.40799ZM12.572 10.8889V21.7778H16.4974V15.826C16.4974 14.0542 17.7615 13.7995 18.1411 13.7995C18.5206 13.7995 19.5356 14.1802 19.5356 15.826V21.7778H23.3333V15.826C23.3333 12.4084 21.8147 10.8889 19.9154 10.8889C18.016 10.8889 17.003 11.5213 16.4974 12.408V10.8889H12.572Z" fill="#DDE6EC"/>
</svg>
