<svg width="29" height="36" viewBox="0 0 29 36" fill="none" xmlns="http://www.w3.org/2000/svg">
<path opacity="0.5" d="M14.5034 17.7358C15.4591 17.7358 16.2762 17.4003 16.9546 16.7293C17.6334 16.0582 17.9728 15.2516 17.9728 14.3095C17.9728 13.3673 17.6324 12.5617 16.9517 11.8925C16.271 11.2237 15.4527 10.8893 14.4966 10.8893C13.5409 10.8893 12.7238 11.2248 12.0454 11.8958C11.3666 12.5669 11.0272 13.3736 11.0272 14.3161C11.0272 15.2583 11.3676 16.0638 12.0483 16.7326C12.729 17.4014 13.5473 17.7358 14.5034 17.7358ZM14.5 32.22C18.2582 28.9033 21.1341 25.7221 23.1279 22.6762C25.1216 19.6304 26.1184 16.9627 26.1184 14.6731C26.1184 11.2207 25.0058 8.38255 22.7806 6.15861C20.5554 3.93467 17.7952 2.82269 14.5 2.82269C11.2048 2.82269 8.44457 3.93467 6.21936 6.15861C3.99416 8.38255 2.88156 11.2207 2.88156 14.6731C2.88156 16.9627 3.87842 19.6304 5.87214 22.6762C7.86585 25.7221 10.7418 28.9033 14.5 32.22ZM14.5 36C9.66539 31.8703 6.04007 28.027 3.62404 24.4701C1.20801 20.913 0 17.6473 0 14.6731C0 10.3028 1.4339 6.76477 4.30169 4.05886C7.1698 1.35295 10.5692 0 14.5 0C18.4308 0 21.8302 1.35295 24.6983 4.05886C27.5661 6.76477 29 10.3028 29 14.6731C29 17.6473 27.792 20.913 25.376 24.4701C22.9599 28.027 19.3346 31.8703 14.5 36Z" fill="#ADB5BD"/>
</svg>
