<svg width="46" height="36" viewBox="0 0 46 36" fill="none" xmlns="http://www.w3.org/2000/svg">
<path  opacity="0.5" d="M4.37666 36C3.15362 36 2.11842 35.58 1.27105 34.74C0.423684 33.9 0 32.8738 0 31.6614V4.3386C0 3.1262 0.423684 2.1 1.27105 1.26C2.11842 0.42 3.15362 0 4.37666 0H41.6233C42.8464 0 43.8816 0.42 44.729 1.26C45.5763 2.1 46 3.1262 46 4.3386V31.6614C46 32.8738 45.5763 33.9 44.729 34.74C43.8816 35.58 42.8464 36 41.6233 36H4.37666ZM23 19.3386L3.63158 7.0614V31.6614C3.63158 31.877 3.70139 32.054 3.841 32.1924C3.98061 32.3308 4.15917 32.4 4.37666 32.4H41.6233C41.8408 32.4 42.0194 32.3308 42.159 32.1924C42.2986 32.054 42.3684 31.877 42.3684 31.6614V7.0614L23 19.3386ZM23 15.6L41.9962 3.6H4.00382L23 15.6ZM3.63158 7.0614V3.6V31.6614C3.63158 31.877 3.70139 32.054 3.841 32.1924C3.98061 32.3308 4.15917 32.4 4.37666 32.4H3.63158V7.0614Z" fill="white"/>
</svg>
