<svg width="52" height="52" viewBox="0 0 52 52" fill="none" xmlns="http://www.w3.org/2000/svg">
<path d="M24.1127 44.1541H27.754V40.9234C29.8225 40.643 31.6951 39.8659 33.372 38.5921C35.0489 37.3187 35.8874 35.3881 35.8874 32.8001C35.8874 30.9334 35.3369 29.2821 34.236 27.8461C33.1351 26.4105 30.9847 25.115 27.7847 23.9594C24.9811 23.0021 23.1196 22.173 22.2 21.4721C21.2805 20.7712 20.8207 19.7916 20.8207 18.5334C20.8207 17.2752 21.2916 16.253 22.2334 15.4667C23.1751 14.6805 24.4751 14.2874 26.1334 14.2874C27.5214 14.2874 28.6409 14.6147 29.492 15.2694C30.3436 15.9241 30.9985 16.7454 31.4567 17.7334L34.7487 16.4101C34.1913 14.9914 33.2829 13.777 32.0234 12.7667C30.7634 11.7565 29.3847 11.1932 27.8874 11.0767V7.84608H24.246V11.0767C21.9727 11.5145 20.2267 12.4367 19.008 13.8434C17.7889 15.2505 17.1794 16.8139 17.1794 18.5334C17.1794 20.537 17.7862 22.149 19 23.3694C20.2138 24.5899 22.1916 25.6923 24.9334 26.6767C27.7676 27.7163 29.7036 28.649 30.7414 29.4747C31.7787 30.3001 32.2974 31.4085 32.2974 32.8001C32.2974 34.4721 31.694 35.6865 30.4874 36.4434C29.2802 37.2007 27.9178 37.5794 26.4 37.5794C24.8991 37.5794 23.5565 37.1283 22.372 36.2261C21.1871 35.3234 20.2767 34.0036 19.6407 32.2667L16.2667 33.6414C16.9574 35.6205 17.9496 37.193 19.2434 38.3587C20.5376 39.5245 22.1607 40.335 24.1127 40.7901V44.1541ZM26 51.3334C22.4991 51.3334 19.2078 50.6676 16.126 49.3361C13.0438 48.0045 10.3625 46.1985 8.08202 43.9181C5.80158 41.6376 3.99558 38.9563 2.66402 35.8741C1.33247 32.7923 0.666687 29.501 0.666687 26.0001C0.666687 22.4992 1.33247 19.2079 2.66402 16.1261C3.99558 13.0439 5.80158 10.3625 8.08202 8.08208C10.3625 5.80164 13.0438 3.99564 16.126 2.66408C19.2078 1.33253 22.4991 0.666748 26 0.666748C29.5009 0.666748 32.7922 1.33253 35.874 2.66408C38.9562 3.99564 41.6376 5.80164 43.918 8.08208C46.1985 10.3625 48.0045 13.0439 49.336 16.1261C50.6676 19.2079 51.3334 22.4992 51.3334 26.0001C51.3334 29.501 50.6676 32.7923 49.336 35.8741C48.0045 38.9563 46.1985 41.6376 43.918 43.9181C41.6376 46.1985 38.9562 48.0045 35.874 49.3361C32.7922 50.6676 29.5009 51.3334 26 51.3334ZM26 47.3334C31.9556 47.3334 37 45.2667 41.1334 41.1334C45.2667 37.0001 47.3334 31.9556 47.3334 26.0001C47.3334 20.0445 45.2667 15.0001 41.1334 10.8667C37 6.73341 31.9556 4.66675 26 4.66675C20.0445 4.66675 15 6.73341 10.8667 10.8667C6.73335 15.0001 4.66669 20.0445 4.66669 26.0001C4.66669 31.9556 6.73335 37.0001 10.8667 41.1334C15 45.2667 20.0445 47.3334 26 47.3334Z" fill="#04043D"/>
</svg>
