<svg width="36" height="36" viewBox="0 0 36 36" fill="none" xmlns="http://www.w3.org/2000/svg">
<path opacity="0.5" d="M33.7558 36C29.7651 36 25.7559 35.0721 21.7281 33.2164C17.7007 31.3606 14.0003 28.7428 10.6269 25.3631C7.25382 21.9829 4.63941 18.2824 2.78365 14.2613C0.927883 10.2406 0 6.23488 0 2.24418C0 1.60288 0.211765 1.06853 0.635294 0.641117C1.05882 0.213705 1.58824 0 2.22353 0H9.13024C9.66494 0 10.1366 0.17453 10.5454 0.523589C10.9541 0.872295 11.214 1.30324 11.3252 1.81641L12.5391 8.04706C12.6231 8.62518 12.6055 9.12194 12.4862 9.53736C12.3665 9.95277 12.1519 10.3016 11.8424 10.584L6.95171 15.345C7.73876 16.7864 8.63806 18.15 9.64959 19.4358C10.6608 20.7212 11.7556 21.9489 12.9341 23.1189C14.0959 24.2811 15.3312 25.3604 16.6399 26.3568C17.9486 27.3531 19.3618 28.2803 20.8795 29.1383L25.6315 24.345C25.9629 24.0002 26.3642 23.7584 26.8354 23.6197C27.3062 23.4814 27.7955 23.4475 28.3034 23.5181L34.1836 24.7156C34.7183 24.8568 35.1547 25.1296 35.4928 25.5341C35.8309 25.9385 36 26.3974 36 26.9105V33.7765C36 34.4118 35.7863 34.9412 35.3589 35.3647C34.9315 35.7882 34.3971 36 33.7558 36ZM5.44871 12.3395L9.22818 8.72312C9.29594 8.66877 9.34006 8.59412 9.36053 8.49918C9.381 8.40423 9.37765 8.316 9.35047 8.23447L8.42982 3.50206C8.40265 3.39371 8.35518 3.31235 8.28741 3.258C8.21965 3.20365 8.13141 3.17647 8.02271 3.17647H3.49412C3.41259 3.17647 3.34465 3.20365 3.29029 3.258C3.23629 3.31235 3.20929 3.3803 3.20929 3.46182C3.31765 4.90888 3.55447 6.37888 3.91976 7.87182C4.28471 9.36512 4.79435 10.8544 5.44871 12.3395ZM23.8722 30.6408C25.2759 31.2951 26.7399 31.7954 28.2642 32.1417C29.7889 32.4875 31.2136 32.6931 32.5382 32.7584C32.6197 32.7584 32.6877 32.7312 32.742 32.6769C32.7964 32.6225 32.8235 32.5546 32.8235 32.4731V28.0181C32.8235 27.9094 32.7964 27.8211 32.742 27.7534C32.6877 27.6856 32.6063 27.6381 32.4979 27.6109L28.0509 26.7067C27.9694 26.6795 27.8981 26.6762 27.837 26.6966C27.7759 26.7171 27.7114 26.7612 27.6432 26.829L23.8722 30.6408Z" fill="white"/>
</svg>
